# Blender 4.5.2 LTS
# www.blender.org
mtllib apple.mtl
o Apple
v -0.058766 -0.048020 0.038912
v -0.016960 -0.051917 0.019839
v -0.021292 -0.054963 -0.015512
v -0.036212 -0.056742 0.005234
v -0.076050 -0.056988 0.007365
v -0.061228 -0.057152 0.013428
v -0.089834 -0.042990 -0.015037
v -0.101641 -0.028265 -0.012579
v -0.032156 -0.056960 -0.019894
v -0.025635 -0.052054 -0.025506
v -0.045071 -0.055250 -0.006766
v 0.008309 -0.009759 0.017180
v -0.027408 -0.026399 0.049477
v -0.023329 0.006391 0.059187
v -0.102467 0.025309 0.029660
v -0.086757 -0.024047 -0.040983
v -0.095281 -0.010534 -0.040227
v -0.024464 0.017502 -0.057114
v -0.021830 0.002126 -0.058201
v -0.049272 -0.028711 -0.053296
v -0.078982 0.008359 0.054543
v -0.056658 -0.006934 0.060820
v -0.111689 -0.003772 0.003077
v -0.110112 -0.005323 -0.013756
v -0.110603 0.015518 -0.011550
v -0.091406 0.022983 -0.044050
v -0.057442 0.022972 -0.059213
v -0.013664 0.031061 -0.041726
v -0.006642 0.016939 -0.043628
v 0.007586 0.005223 -0.029081
v -0.034341 0.034912 0.049687
v 0.002724 0.033347 0.004342
v -0.050568 0.044258 0.025098
v -0.037625 0.024186 0.058062
v -0.057833 0.030021 0.053253
v -0.104708 0.031829 -0.004509
v -0.056344 0.032334 -0.053585
v -0.074938 0.044590 -0.026023
v -0.058213 0.044222 -0.022942
v -0.087699 0.036993 -0.034304
v -0.003156 0.034410 -0.021708
v 0.003455 0.032266 -0.009866
v -0.027183 0.044101 -0.006098
v 0.004105 0.021475 0.027973
v -0.072964 -0.003378 -0.057457
v -0.026282 -0.052659 0.026877
v -0.043713 -0.056569 0.018025
v -0.040394 -0.044705 -0.040629
v 0.003965 0.022975 -0.026255
v -0.031790 0.043535 0.033158
v -0.050125 -0.051401 0.000401
v -0.071491 -0.027625 0.048490
v -0.068138 -0.024130 -0.052078
v -0.012520 -0.033221 -0.032155
v 0.008915 0.024788 0.006115
v -0.050000 0.037398 -0.000000
v -0.057444 -0.057737 0.025082
v -0.004719 -0.039067 -0.003790
v -0.086388 -0.037689 0.028777
v -0.059851 -0.055928 -0.025667
v -0.018090 -0.004584 0.054826
v -0.088687 -0.005883 0.048215
v -0.108459 -0.007772 0.015371
v -0.083997 0.031741 0.043822
v -0.015197 0.043983 -0.002629
v -0.072936 0.044118 0.029331
v -0.034351 0.044102 -0.032120
v -0.054693 -0.028754 0.052047
v -0.031695 -0.058920 -0.006406
v -0.002476 -0.036021 0.006752
v -0.060854 -0.055492 -0.001270
v -0.097711 -0.033824 0.010986
v -0.057266 -0.057773 -0.015391
v 0.012903 0.007580 -0.017051
v 0.014729 0.008026 0.003518
v -0.004758 -0.013901 0.037512
v -0.042012 0.003864 0.062276
v -0.108567 0.009849 -0.025233
v -0.094498 0.009686 -0.046010
v -0.056705 -0.007781 -0.060462
v -0.040583 0.007344 -0.063795
v -0.012785 0.032691 0.040368
v -0.104722 0.029089 -0.018444
v -0.041228 0.028288 -0.057136
v -0.079848 0.025985 -0.050366
v -0.025194 0.030599 -0.050313
v -0.090239 0.038108 0.029295
v -0.077167 0.045067 0.003842
v -0.052185 -0.052719 0.033554
v -0.018557 -0.053944 0.012437
v -0.024902 -0.056557 0.000329
v -0.083654 -0.052113 0.011900
v -0.071272 -0.055089 -0.020693
v 0.005407 -0.020624 0.000650
v 0.012931 -0.007214 0.002074
v -0.101772 0.002459 0.036121
v -0.103770 -0.009407 -0.028050
v -0.102692 0.006487 -0.036515
v -0.026537 -0.013883 -0.054359
v 0.001809 0.002062 0.038459
v -0.011191 0.016729 0.049765
v -0.061265 0.019688 0.058556
v -0.071554 -0.004365 0.057870
v -0.111300 0.014302 0.015530
v -0.080969 0.015670 -0.053344
v -0.053716 0.010790 -0.063382
v -0.020877 0.040547 0.035215
v -0.074952 0.041013 0.036300
v -0.056632 0.038875 0.044596
v -0.075501 0.036970 -0.042957
v -0.024285 0.040138 -0.037402
v -0.031121 -0.058064 0.017953
v -0.039547 -0.035918 0.047498
v -0.004910 -0.035113 -0.016045
v -0.002596 -0.028957 0.025415
v -0.084655 -0.052675 0.001909
v -0.085790 -0.029018 0.036914
v -0.070064 -0.042763 -0.037548
v -0.097778 -0.026549 -0.024678
v -0.029760 -0.034580 -0.046206
v 0.004386 -0.013203 -0.021810
v 0.011642 0.019127 -0.007052
v 0.013513 0.001035 0.011804
v -0.010108 -0.010977 0.045971
v -0.023426 0.020694 0.055804
v -0.097947 0.015818 0.040946
v -0.108413 0.007264 0.026058
v -0.102702 0.020778 -0.032093
v -0.085287 -0.008027 -0.049569
v -0.012757 0.007474 -0.051750
v -0.046195 0.040233 -0.001018
v -0.090824 0.042520 0.013033
v -0.052416 0.040232 0.003126
v -0.067637 -0.048987 0.034484
v -0.081045 -0.040330 -0.031719
v -0.102309 -0.008762 0.029297
v -0.037329 -0.003453 -0.062170
v -0.004859 0.003914 0.046603
v -0.002645 0.023614 0.037547
v -0.109184 0.024292 0.009853
v -0.005895 0.037053 0.021434
v -0.092592 0.040404 -0.017793
v -0.045536 0.041675 -0.043207
v -0.008253 0.041102 -0.007709
v -0.013886 -0.030023 0.039401
v -0.051696 -0.045257 -0.040291
v -0.048325 -0.055463 -0.023089
v 0.009579 -0.010905 -0.011130
v -0.037197 -0.010251 0.059264
v -0.106731 -0.017980 0.002117
v -0.061079 0.007054 0.061031
v -0.086172 0.022915 0.047422
v -0.010981 -0.005780 -0.047741
v -0.100673 0.036041 0.010373
v -0.053129 0.040569 -0.003260
vn -0.1260 -0.6783 0.7239
vn 0.5968 -0.7398 0.3108
vn 0.5280 -0.8159 -0.2359
vn -0.1621 -0.9868 -0.0074
vn -0.2627 -0.9608 0.0883
vn 0.0805 -0.9895 -0.1200
vn -0.6953 -0.6593 -0.2861
vn -0.8606 -0.4807 -0.1681
vn 0.1148 -0.9379 -0.3273
vn 0.4120 -0.7451 -0.5245
vn -0.1377 -0.9769 0.1632
vn 0.8851 -0.3470 0.3100
vn 0.3538 -0.4457 0.8223
vn 0.3503 0.0212 0.9364
vn -0.7792 0.4458 0.4406
vn -0.5835 -0.4594 -0.6697
vn -0.7127 -0.2953 -0.6363
vn 0.4040 0.2970 -0.8652
vn 0.4539 -0.0966 -0.8858
vn -0.0079 -0.4843 -0.8748
vn -0.4459 0.0995 0.8896
vn -0.1097 -0.2331 0.9662
vn -0.9854 -0.1659 0.0372
vn -0.9618 -0.1995 -0.1877
vn -0.9765 0.1768 -0.1235
vn -0.6103 0.4093 -0.6782
vn -0.1681 0.3829 -0.9084
vn 0.5602 0.5933 -0.5781
vn 0.6934 0.2752 -0.6660
vn 0.8547 -0.0543 -0.5162
vn 0.1582 0.7269 0.6682
vn 0.6931 0.7147 0.0935
vn 0.0102 0.9999 -0.0089
vn 0.0945 0.4138 0.9055
vn -0.1355 0.5983 0.7898
vn -0.7890 0.6112 -0.0627
vn -0.1240 0.6594 -0.7415
vn -0.1582 0.9676 -0.1969
vn 0.0302 0.9979 0.0575
vn -0.4930 0.7385 -0.4600
vn 0.5998 0.7339 -0.3189
vn 0.7393 0.6576 -0.1447
vn -0.0314 0.9995 0.0037
vn 0.8431 0.3754 0.3850
vn -0.3644 -0.1421 -0.9204
vn 0.2919 -0.7810 0.5522
vn -0.0020 -0.9977 0.0675
vn 0.1249 -0.7287 -0.6734
vn 0.7959 0.4271 -0.4290
vn 0.1015 0.9617 0.2545
vn 0.0212 -0.9901 0.1387
vn -0.3754 -0.4567 0.8065
vn -0.3067 -0.4465 -0.8406
vn 0.6797 -0.4944 -0.5419
vn 0.8733 0.4664 0.1409
vn -0.1025 0.9922 -0.0710
vn -0.0530 -0.9567 0.2862
vn 0.8005 -0.5925 -0.0902
vn -0.6667 -0.5519 0.5009
vn -0.0833 -0.9017 -0.4243
vn 0.4488 -0.3270 0.8317
vn -0.6110 -0.2221 0.7598
vn -0.9001 -0.3447 0.2666
vn -0.4267 0.5970 0.6793
vn 0.2355 0.9719 0.0036
vn -0.1422 0.9647 0.2215
vn 0.1154 0.9767 -0.1811
vn -0.0844 -0.4591 0.8844
vn 0.0446 -0.9987 0.0235
vn 0.8398 -0.5373 0.0784
vn 0.2049 -0.9715 0.1190
vn -0.8379 -0.5033 0.2112
vn 0.0416 -0.9986 -0.0326
vn 0.9592 0.0315 -0.2810
vn 0.9913 0.1062 0.0772
vn 0.7724 -0.3359 0.5390
vn 0.0611 0.0100 0.9981
vn -0.9408 0.0570 -0.3341
vn -0.6529 0.0527 -0.7556
vn -0.1348 -0.2464 -0.9597
vn 0.1085 0.0663 -0.9919
vn 0.5260 0.6397 0.5604
vn -0.8126 0.5256 -0.2519
vn 0.1182 0.5338 -0.8373
vn -0.4035 0.4629 -0.7892
vn 0.3585 0.6024 -0.7131
vn -0.5006 0.7787 0.3782
vn -0.0443 0.9990 -0.0042
vn 0.0729 -0.8216 0.5653
vn 0.5471 -0.8357 0.0489
vn 0.2706 -0.9622 0.0311
vn -0.6002 -0.7500 0.2779
vn -0.3628 -0.8718 -0.3291
vn 0.8870 -0.4615 0.0171
vn 0.9455 -0.3248 0.0215
vn -0.7939 -0.1437 0.5908
vn -0.8595 -0.2842 -0.4248
vn -0.8248 -0.0325 -0.5645
vn 0.3868 -0.3768 -0.8417
vn 0.8383 -0.0895 0.5378
vn 0.6007 0.2777 0.7497
vn -0.1913 0.3312 0.9240
vn -0.3487 -0.1745 0.9209
vn -0.9734 0.1331 0.1863
vn -0.4300 0.1676 -0.8871
vn -0.1277 0.1067 -0.9861
vn 0.3247 0.8715 0.3675
vn -0.2336 0.8507 0.4709
vn -0.0743 0.8289 0.5545
vn -0.2825 0.7671 -0.5760
vn 0.3244 0.8553 -0.4039
vn 0.0714 -0.9687 0.2379
vn 0.1711 -0.5685 0.8047
vn 0.7967 -0.5177 -0.3117
vn 0.8094 -0.4420 0.3866
vn -0.6298 -0.7753 -0.0477
vn -0.6310 -0.4632 0.6223
vn -0.3384 -0.6503 -0.6802
vn -0.7702 -0.4722 -0.4287
vn 0.3682 -0.5257 -0.7668
vn 0.8202 -0.4084 -0.4006
vn 0.9230 0.3675 -0.1143
vn 0.9620 -0.0769 0.2621
vn 0.6146 -0.3419 0.7109
vn 0.3663 0.3847 0.8472
vn -0.7068 0.1865 0.6823
vn -0.9181 -0.0279 0.3953
vn -0.7960 0.3607 -0.4862
vn -0.5363 -0.2442 -0.8079
vn 0.6454 0.0599 -0.7615
vn -0.2234 0.9741 0.0352
vn -0.3914 0.9143 0.1044
vn 0.1170 0.9741 -0.1935
vn -0.3848 -0.7137 0.5853
vn -0.5601 -0.6227 -0.5464
vn -0.8194 -0.3507 0.4535
vn 0.1584 -0.2407 -0.9576
vn 0.7014 -0.0301 0.7121
vn 0.7306 0.4224 0.5365
vn -0.9077 0.4073 0.1010
vn 0.5712 0.7862 0.2358
vn -0.4835 0.8575 -0.1757
vn 0.0319 0.8805 -0.4731
vn 0.4491 0.8887 -0.0922
vn 0.5708 -0.4856 0.6621
vn -0.0671 -0.7235 -0.6870
vn 0.0574 -0.9484 -0.3119
vn 0.9000 -0.3697 -0.2307
vn 0.1762 -0.3047 0.9360
vn -0.9167 -0.3918 0.0786
vn -0.1813 0.0827 0.9799
vn -0.4939 0.3295 0.8047
vn 0.6649 -0.2803 -0.6924
vn -0.6865 0.7173 0.1191
vn 0.1665 0.9679 0.1882
vt 0.538268 0.308388
vt 0.600410 0.203313
vt 0.616447 0.344977
vt 0.492835 0.191142
vt 0.566655 0.097128
vt 0.456738 0.141527
vt 0.462235 0.238391
vt 0.382029 0.088004
vt 0.491332 0.014526
vt 0.724758 0.303468
vt 0.671884 0.357446
vt 0.656272 0.219342
vt 0.691752 0.185485
vt 0.820894 0.176812
vt 0.739347 0.132124
vt 0.818965 0.105140
vt 0.631074 0.135343
vt 0.431905 0.352537
vt 0.378321 0.351201
vt 0.421811 0.221988
vt 0.297641 0.132577
vt 0.360032 0.292069
vt 0.310829 0.199650
vt 0.283778 0.311024
vt 0.236203 0.053507
vt 0.075828 0.087707
vt 0.129007 0.158382
vt 0.058344 0.145574
vt 0.953579 0.243820
vt 1.007362 0.235258
vt 0.998562 0.335449
vt 0.071857 0.254461
vt 0.023148 0.221338
vt 0.015999 0.349637
vt 0.051964 0.370861
vt 0.987528 0.118677
vt 0.930227 0.315072
vt 0.863594 0.316306
vt 0.878000 0.196176
vt 0.879996 0.039243
vt 1.049520 0.075833
vt 1.053357 0.028408
vt 0.705292 0.451301
vt 0.747307 0.471552
vt 0.720391 0.519155
vt 0.787239 0.553374
vt 0.767324 0.616023
vt 0.744515 0.561234
vt 0.775639 0.447077
vt 0.764090 0.279051
vt 0.804200 0.306381
vt 0.485059 0.345457
vt 0.533605 0.453068
vt 0.567550 0.545415
vt 0.536377 0.645049
vt 0.515786 0.535275
vt 0.334738 0.464316
vt 0.316822 0.553113
vt 0.346171 0.523645
vt 0.363463 0.596650
vt 0.394871 0.480285
vt 0.123753 0.269577
vt 0.116599 0.371987
vt 0.131610 0.456527
vt 0.123276 0.562089
vt 0.096258 0.469638
vt 0.188594 0.564470
vt 0.170323 0.461778
vt 0.213654 0.484266
vt 0.153858 0.538524
vt 0.213568 0.353848
vt 0.173128 0.353449
vt 0.254741 0.392356
vt 0.883824 0.469410
vt 0.975248 0.552471
vt 0.975294 0.666175
vt 0.933979 0.609656
vt 0.930151 0.523766
vt 0.968613 0.488904
vt 0.018067 0.468168
vt 0.675926 0.625428
vt 0.733319 0.642659
vt 0.653409 0.522052
vt 0.638852 0.636705
vt 0.622463 0.533270
vt 0.570272 0.621636
vt 0.605272 0.600081
vt 0.619462 0.695034
vt 0.581293 0.486459
vt 0.441866 0.490665
vt 0.481928 0.473585
vt 0.471025 0.550327
vt 0.470503 0.622703
vt 0.422867 0.556089
vt 0.396115 0.690925
vt 0.396209 0.633521
vt 0.289116 0.584046
vt 0.329817 0.648274
vt 0.277318 0.643010
vt 0.257365 0.497497
vt 0.290779 0.467169
vt 0.223937 0.594264
vt 0.199632 0.665414
vt 0.238011 0.694073
vt 0.085129 0.653321
vt 0.083588 0.591925
vt 0.120814 0.636037
vt 0.063371 0.488692
vt 0.023197 0.634249
vt 0.874799 0.604063
vt 0.882940 0.683062
vt 0.777830 0.695884
vt 0.824276 0.641375
vt 0.826444 0.541493
vt 0.814180 0.442520
vt 0.579497 0.795689
vt 0.546740 0.715105
vt 0.612506 0.750067
vt 0.679307 0.733610
vt 0.761852 0.824438
vt 0.501092 0.885540
vt 0.796627 0.893212
vt 0.786040 0.974989
vt 0.402386 0.765942
vt 0.396101 0.814271
vt 0.299278 0.777194
vt 0.350554 0.730757
vt 0.478845 0.754919
vt 0.477338 0.687641
vt 0.185401 0.749773
vt 0.125976 0.809970
vt 0.129717 0.724413
vt 0.281938 0.720372
vt 0.279994 0.865308
vt 0.134615 0.974439
vt 0.069427 0.888282
vt 0.986910 0.772406
vt 0.932009 0.812144
vt 0.903384 0.757046
vt 0.928503 0.680303
vt 0.025170 0.785129
vt 0.022423 0.702546
vt 0.084295 0.730675
vt 0.736342 0.699395
vt 0.783655 0.767506
vt 1.006739 0.885076
vt 0.568618 0.364699
vt 0.694521 0.074120
vt 0.883174 0.140818
vt 0.255936 0.190025
vt 0.192193 0.249588
vt 0.020701 0.134633
vt 1.049026 0.116416
vt 0.749545 0.404511
vt 0.609580 0.459323
vt 0.640504 0.433273
vt 0.162709 0.621525
vt 0.933678 0.439657
vt 1.004481 0.477874
vt 0.900955 0.555267
vt 0.995806 0.359110
vt 0.013778 0.576873
vt 0.999565 0.575191
vt 1.007218 0.643821
vt 1.012252 0.698564
vt 0.818638 0.714594
vt 0.715241 0.986913
vt 0.412549 0.974631
vt 0.633765 0.986832
vt 0.050001 0.858821
vt 1.113254 0.979172
s 1
usemtl Material.001
f 113/1/113 46/2/46 145/3/145
f 89/4/89 47/5/47 46/2/46
f 46/2/46 113/1/113 89/4/89
f 57/6/57 47/5/47 89/4/89
f 89/4/89 1/7/1 57/6/57
f 6/8/6 51/9/51 47/5/47
f 70/10/70 115/11/115 2/12/2
f 70/10/70 2/12/2 90/13/90
f 3/14/3 91/15/91 69/16/69
f 91/15/91 90/13/90 112/17/112
f 52/18/52 117/19/117 134/20/134
f 134/20/134 1/7/1 52/18/52
f 57/6/57 1/7/1 134/20/134
f 134/20/134 5/21/5 57/6/57
f 134/20/134 59/22/59 92/23/92
f 72/24/72 92/23/92 59/22/59
f 5/21/5 71/25/71 6/8/6
f 71/25/71 51/9/51 6/8/6
f 73/26/73 93/27/93 60/28/60
f 73/26/73 5/21/5 93/27/93
f 73/26/73 71/25/71 5/21/5
f 48/29/48 146/30/146 20/31/20
f 60/28/60 118/32/118 146/33/146
f 118/32/118 20/34/20 146/33/146
f 20/34/20 118/32/118 53/35/53
f 147/36/147 146/30/146 48/29/48
f 120/37/120 54/38/54 10/39/10
f 10/39/10 54/38/54 3/14/3
f 147/36/147 11/40/11 73/41/73
f 11/40/11 71/42/71 73/41/73
f 12/43/12 95/44/95 123/45/123
f 74/46/74 122/47/122 75/48/75
f 148/49/148 58/50/58 114/51/114
f 68/52/68 113/1/113 149/53/149
f 14/54/14 34/55/34 77/56/77
f 117/19/117 136/57/136 59/22/59
f 127/58/127 96/59/96 126/60/126
f 126/60/126 96/59/96 62/61/62
f 117/19/117 52/18/52 62/61/62
f 118/32/118 135/62/135 16/63/16
f 17/64/17 79/65/79 129/66/129
f 78/67/78 97/68/97 24/69/24
f 79/65/79 17/64/17 98/70/98
f 97/68/97 8/71/8 24/69/24
f 119/72/119 8/71/8 97/68/97
f 150/73/150 8/71/8 72/24/72
f 54/38/54 120/37/120 153/74/153
f 81/75/81 84/76/84 18/77/18
f 19/78/19 137/79/137 81/75/81
f 20/34/20 53/35/53 80/80/80
f 123/45/123 75/48/75 44/81/44
f 55/82/55 44/81/44 75/48/75
f 100/83/100 123/45/123 44/81/44
f 100/83/100 139/84/139 138/85/138
f 125/86/125 101/87/101 82/88/82
f 14/54/14 61/89/61 138/85/138
f 101/87/101 14/54/14 138/85/138
f 103/90/103 22/91/22 151/92/151
f 151/92/151 102/93/102 21/94/21
f 21/94/21 126/60/126 62/61/62
f 64/95/64 152/96/152 102/93/102
f 52/18/52 68/52/68 22/91/22
f 104/97/104 15/98/15 140/99/140
f 23/100/23 63/101/63 127/58/127
f 127/58/127 104/97/104 23/100/23
f 25/102/25 23/100/23 104/97/104
f 83/103/83 140/99/140 36/104/36
f 25/102/25 83/103/83 78/67/78
f 78/67/78 24/69/24 25/102/25
f 85/105/85 105/106/105 26/107/26
f 79/65/79 105/106/105 45/108/45
f 27/109/27 105/106/105 85/105/85
f 80/80/80 53/35/53 45/108/45
f 29/110/29 18/77/18 28/111/28
f 122/47/122 42/112/42 55/82/55
f 49/113/49 122/47/122 74/46/74
f 74/46/74 30/114/30 49/113/49
f 30/114/30 74/46/74 121/115/121
f 50/116/50 31/117/31 107/118/107
f 31/117/31 125/86/125 82/88/82
f 125/86/125 31/117/31 34/55/34
f 107/118/107 141/119/141 65/120/65
f 33/121/33 43/122/43 131/123/131
f 33/121/33 50/116/50 43/122/43
f 108/124/108 66/125/66 132/126/132
f 87/127/87 15/98/15 64/95/64
f 109/128/109 64/95/64 35/129/35
f 109/128/109 31/117/31 50/116/50
f 34/55/34 31/117/31 35/129/35
f 142/130/142 38/131/38 40/132/40
f 142/130/142 40/132/40 83/103/83
f 154/133/154 132/126/132 142/130/142
f 38/131/38 132/126/132 88/134/88
f 88/134/88 132/126/132 66/125/66
f 155/135/155 39/136/39 88/134/88
f 39/136/39 38/131/38 88/134/88
f 132/126/132 154/133/154 87/127/87
f 143/137/143 67/138/67 111/139/111
f 143/137/143 86/140/86 84/76/84
f 143/141/143 37/142/37 110/143/110
f 110/143/110 85/105/85 40/132/40
f 37/142/37 85/105/85 110/143/110
f 32/144/32 55/82/55 42/112/42
f 42/112/42 144/145/144 32/144/32
f 111/139/111 67/138/67 144/145/144
f 43/122/43 39/146/39 131/123/131
f 67/138/67 39/146/39 65/120/65
f 145/3/145 13/147/13 113/1/113
f 2/12/2 145/3/145 46/2/46
f 145/3/145 2/12/2 115/11/115
f 112/17/112 46/2/46 47/5/47
f 112/17/112 2/12/2 46/2/46
f 52/18/52 1/7/1 68/52/68
f 1/7/1 89/4/89 113/1/113
f 68/52/68 1/7/1 113/1/113
f 6/8/6 47/5/47 57/6/57
f 4/148/4 47/5/47 51/9/51
f 112/17/112 47/5/47 4/148/4
f 90/13/90 2/12/2 112/17/112
f 90/13/90 91/15/91 3/14/3
f 3/14/3 58/50/58 90/13/90
f 90/13/90 58/50/58 70/10/70
f 54/38/54 114/51/114 3/14/3
f 114/51/114 58/50/58 3/14/3
f 3/14/3 69/16/69 9/149/9
f 4/148/4 69/16/69 91/15/91
f 51/9/51 11/40/11 4/148/4
f 69/16/69 4/148/4 11/40/11
f 4/148/4 91/15/91 112/17/112
f 59/22/59 134/20/134 117/19/117
f 5/21/5 134/20/134 92/23/92
f 116/150/116 5/21/5 92/23/92
f 72/24/72 116/150/116 92/23/92
f 6/8/6 57/6/57 5/21/5
f 119/72/119 7/151/7 8/71/8
f 135/62/135 7/151/7 119/72/119
f 7/151/7 116/150/116 8/71/8
f 116/150/116 72/24/72 8/71/8
f 7/151/7 93/27/93 116/150/116
f 7/151/7 135/62/135 93/27/93
f 93/27/93 135/62/135 118/32/118
f 93/27/93 118/32/118 60/28/60
f 5/21/5 116/150/116 93/27/93
f 20/31/20 120/37/120 48/29/48
f 147/36/147 48/29/48 9/149/9
f 60/28/60 146/33/146 147/152/147
f 48/29/48 120/37/120 10/39/10
f 9/149/9 48/29/48 10/39/10
f 10/39/10 3/14/3 9/149/9
f 69/16/69 147/36/147 9/149/9
f 69/16/69 11/40/11 147/36/147
f 51/9/51 71/42/71 11/40/11
f 60/153/60 147/36/147 73/41/73
f 115/11/115 70/10/70 12/43/12
f 12/43/12 70/10/70 94/154/94
f 70/10/70 58/50/58 94/154/94
f 94/154/94 58/50/58 148/49/148
f 95/44/95 94/154/94 148/49/148
f 12/43/12 94/154/94 95/44/95
f 148/49/148 121/115/121 74/46/74
f 122/47/122 55/82/55 75/48/75
f 95/44/95 148/49/148 74/46/74
f 95/44/95 74/46/74 75/48/75
f 123/45/123 95/44/95 75/48/75
f 54/38/54 121/115/121 148/49/148
f 148/49/148 114/51/114 54/38/54
f 149/53/149 22/91/22 68/52/68
f 22/91/22 149/53/149 77/56/77
f 13/147/13 149/53/149 113/1/113
f 149/53/149 13/147/13 124/155/124
f 149/53/149 124/155/124 61/89/61
f 125/86/125 34/55/34 14/54/14
f 14/54/14 77/56/77 149/53/149
f 149/53/149 61/89/61 14/54/14
f 124/155/124 13/147/13 145/3/145
f 145/3/145 76/156/76 124/155/124
f 136/57/136 63/101/63 150/73/150
f 136/57/136 150/73/150 72/24/72
f 59/22/59 136/57/136 72/24/72
f 117/19/117 62/61/62 136/57/136
f 62/61/62 96/59/96 136/57/136
f 136/57/136 127/58/127 63/101/63
f 127/58/127 126/60/126 15/98/15
f 96/59/96 127/58/127 136/57/136
f 129/66/129 16/63/16 17/64/17
f 53/35/53 16/63/16 129/66/129
f 53/35/53 118/32/118 16/63/16
f 17/64/17 16/63/16 119/72/119
f 97/68/97 17/64/17 119/72/119
f 16/63/16 135/62/135 119/72/119
f 17/64/17 97/68/97 98/70/98
f 128/157/128 79/65/79 98/70/98
f 98/70/98 78/67/78 128/157/128
f 78/67/78 98/70/98 97/68/97
f 120/37/120 99/158/99 153/74/153
f 120/37/120 20/31/20 99/158/99
f 99/158/99 20/31/20 137/79/137
f 99/158/99 137/79/137 19/78/19
f 19/78/19 153/74/153 99/158/99
f 19/78/19 81/75/81 18/77/18
f 137/79/137 80/159/80 81/75/81
f 130/160/130 153/74/153 19/78/19
f 80/159/80 137/79/137 20/161/20
f 44/81/44 139/84/139 100/83/100
f 139/84/139 101/87/101 138/85/138
f 14/54/14 101/87/101 125/86/125
f 82/88/82 101/87/101 139/84/139
f 100/83/100 138/85/138 124/155/124
f 138/85/138 61/89/61 124/155/124
f 100/83/100 124/155/124 76/156/76
f 76/156/76 12/43/12 100/83/100
f 145/3/145 115/11/115 76/156/76
f 76/156/76 115/11/115 12/43/12
f 12/43/12 123/45/123 100/83/100
f 35/129/35 64/95/64 102/93/102
f 102/93/102 151/92/151 77/56/77
f 34/55/34 102/93/102 77/56/77
f 34/55/34 35/129/35 102/93/102
f 22/91/22 77/56/77 151/92/151
f 151/92/151 21/94/21 103/90/103
f 102/93/102 152/96/152 21/94/21
f 62/61/62 103/90/103 21/94/21
f 152/96/152 64/95/64 126/60/126
f 126/60/126 64/95/64 15/98/15
f 152/96/152 126/60/126 21/94/21
f 22/91/22 103/90/103 52/18/52
f 103/90/103 62/61/62 52/18/52
f 15/98/15 104/97/104 127/58/127
f 140/99/140 83/103/83 25/102/25
f 140/99/140 25/102/25 104/97/104
f 24/69/24 23/100/23 25/102/25
f 78/67/78 83/103/83 128/157/128
f 23/100/23 24/69/24 150/73/150
f 150/73/150 24/69/24 8/71/8
f 63/101/63 23/100/23 150/73/150
f 85/105/85 37/142/37 27/109/27
f 79/65/79 26/107/26 105/106/105
f 26/107/26 79/65/79 128/157/128
f 45/108/45 105/106/105 106/162/106
f 106/162/106 105/106/105 27/109/27
f 106/163/106 27/164/27 84/76/84
f 106/163/106 84/76/84 81/75/81
f 106/163/106 81/75/81 80/159/80
f 27/164/27 37/165/37 84/76/84
f 45/108/45 106/162/106 80/80/80
f 53/35/53 129/66/129 45/108/45
f 129/66/129 79/65/79 45/108/45
f 28/111/28 18/77/18 86/140/86
f 29/110/29 130/160/130 18/77/18
f 130/160/130 19/78/19 18/77/18
f 86/140/86 18/77/18 84/76/84
f 29/110/29 30/114/30 130/160/130
f 153/74/153 130/160/130 30/114/30
f 29/110/29 28/111/28 49/113/49
f 49/113/49 30/114/30 29/110/29
f 42/112/42 122/47/122 49/113/49
f 49/113/49 28/111/28 41/166/41
f 49/113/49 41/166/41 42/112/42
f 121/115/121 153/74/153 30/114/30
f 153/74/153 121/115/121 54/38/54
f 107/118/107 31/117/31 82/88/82
f 82/88/82 141/119/141 107/118/107
f 107/118/107 65/120/65 50/116/50
f 131/123/131 56/167/56 133/168/133
f 33/121/33 131/123/131 133/168/133
f 43/122/43 50/116/50 65/120/65
f 65/120/65 141/119/141 144/145/144
f 32/144/32 144/145/144 141/119/141
f 32/144/32 141/119/141 55/82/55
f 141/119/141 44/81/44 55/82/55
f 108/124/108 132/126/132 87/127/87
f 108/124/108 87/127/87 64/95/64
f 64/95/64 109/128/109 108/124/108
f 108/124/108 109/128/109 66/125/66
f 66/125/66 50/116/50 33/121/33
f 109/128/109 50/116/50 66/125/66
f 133/168/133 88/134/88 33/121/33
f 33/121/33 88/134/88 66/125/66
f 35/129/35 31/117/31 109/128/109
f 83/103/83 36/104/36 142/130/142
f 83/103/83 40/132/40 128/157/128
f 142/130/142 36/104/36 154/133/154
f 142/130/142 132/126/132 38/131/38
f 155/135/155 88/134/88 133/168/133
f 133/168/133 56/169/56 155/135/155
f 15/98/15 87/127/87 154/133/154
f 154/133/154 140/99/140 15/98/15
f 154/133/154 36/104/36 140/99/140
f 84/76/84 37/165/37 143/137/143
f 38/131/38 143/141/143 110/143/110
f 44/81/44 141/119/141 82/88/82 139/84/139
f 38/131/38 67/170/67 143/141/143
f 131/123/131 39/146/39 155/171/155
f 155/171/155 56/167/56 131/123/131
f 39/136/39 67/170/67 38/131/38
f 38/131/38 110/143/110 40/132/40
f 40/132/40 26/107/26 128/157/128
f 40/132/40 85/105/85 26/107/26
f 42/112/42 41/166/41 144/145/144
f 41/166/41 111/139/111 144/145/144
f 111/139/111 41/166/41 28/111/28
f 144/145/144 67/138/67 65/120/65
f 65/120/65 39/146/39 43/122/43
f 111/139/111 28/111/28 86/140/86
f 86/140/86 143/137/143 111/139/111
