# Blender 4.5.2 LTS
# www.blender.org
mtllib apple.mtl
o Apple
v -0.048766 0.019980 0.038912
v -0.006960 0.016083 0.019839
v -0.011292 0.013037 -0.015512
v -0.026212 0.011258 0.005234
v -0.066050 0.011012 0.007365
v -0.051228 0.010848 0.013428
v -0.079834 0.025010 -0.015037
v -0.091641 0.039735 -0.012579
v -0.022156 0.011040 -0.019894
v -0.015635 0.015946 -0.025506
v -0.035071 0.012750 -0.006766
v 0.018309 0.058241 0.017180
v -0.017408 0.041601 0.049477
v -0.013329 0.074391 0.059187
v -0.092467 0.093309 0.029660
v -0.076757 0.043953 -0.040983
v -0.085281 0.057466 -0.040227
v -0.014464 0.085502 -0.057114
v -0.011830 0.070126 -0.058201
v -0.039272 0.039289 -0.053296
v -0.068982 0.076359 0.054543
v -0.046658 0.061066 0.060820
v -0.101689 0.064228 0.003077
v -0.100112 0.062677 -0.013756
v -0.100603 0.083518 -0.011550
v -0.081406 0.090983 -0.044050
v -0.047442 0.090972 -0.059213
v -0.003664 0.099061 -0.041726
v 0.003358 0.084939 -0.043628
v 0.017586 0.073223 -0.029081
v -0.024341 0.102912 0.049687
v 0.012724 0.101347 0.004342
v -0.040568 0.112258 0.025098
v -0.027625 0.092186 0.058062
v -0.047833 0.098021 0.053253
v -0.094708 0.099829 -0.004509
v -0.046344 0.100334 -0.053585
v -0.064938 0.112590 -0.026023
v -0.048213 0.112222 -0.022942
v -0.077699 0.104993 -0.034304
v 0.006844 0.102410 -0.021708
v 0.013455 0.100266 -0.009866
v -0.017183 0.112101 -0.006098
v 0.014105 0.089475 0.027973
v -0.062964 0.064622 -0.057457
v -0.016282 0.015341 0.026877
v -0.033713 0.011431 0.018025
v -0.030394 0.023295 -0.040629
v 0.013965 0.090975 -0.026255
v -0.021790 0.111535 0.033158
v -0.040125 0.016599 0.000401
v -0.061491 0.040375 0.048490
v -0.058138 0.043870 -0.052078
v -0.002520 0.034779 -0.032155
v 0.018915 0.092788 0.006115
v -0.040000 0.105398 -0.000000
v -0.047444 0.010263 0.025082
v 0.005281 0.028933 -0.003790
v -0.076388 0.030311 0.028777
v -0.049851 0.012072 -0.025667
v -0.008090 0.063416 0.054826
v -0.078687 0.062117 0.048215
v -0.098459 0.060228 0.015371
v -0.073997 0.099741 0.043822
v -0.005197 0.111983 -0.002629
v -0.062936 0.112118 0.029331
v -0.024351 0.112102 -0.032120
v -0.044693 0.039246 0.052047
v -0.021695 0.009080 -0.006406
v 0.007524 0.031979 0.006752
v -0.050854 0.012508 -0.001270
v -0.087711 0.034176 0.010986
v -0.047266 0.010227 -0.015391
v 0.022903 0.075580 -0.017051
v 0.024729 0.076026 0.003518
v 0.005242 0.054099 0.037512
v -0.032012 0.071864 0.062276
v -0.098567 0.077849 -0.025233
v -0.084498 0.077686 -0.046010
v -0.046705 0.060219 -0.060462
v -0.030583 0.075344 -0.063795
v -0.002785 0.100691 0.040368
v -0.094722 0.097089 -0.018444
v -0.031228 0.096288 -0.057136
v -0.069848 0.093985 -0.050366
v -0.015194 0.098599 -0.050313
v -0.080239 0.106108 0.029295
v -0.067167 0.113067 0.003842
v -0.042185 0.015281 0.033554
v -0.008557 0.014056 0.012437
v -0.014902 0.011443 0.000329
v -0.073654 0.015887 0.011900
v -0.061272 0.012911 -0.020693
v 0.015407 0.047376 0.000650
v 0.022931 0.060786 0.002074
v -0.091772 0.070459 0.036121
v -0.093770 0.058593 -0.028050
v -0.092692 0.074487 -0.036515
v -0.016537 0.054117 -0.054359
v 0.011809 0.070062 0.038459
v -0.001191 0.084729 0.049765
v -0.051265 0.087688 0.058556
v -0.061554 0.063635 0.057870
v -0.101300 0.082302 0.015530
v -0.070969 0.083670 -0.053344
v -0.043716 0.078790 -0.063382
v -0.010877 0.108547 0.035215
v -0.064952 0.109013 0.036300
v -0.046632 0.106875 0.044596
v -0.065501 0.104970 -0.042957
v -0.014285 0.108138 -0.037402
v -0.021121 0.009936 0.017953
v -0.029547 0.032082 0.047498
v 0.005090 0.032887 -0.016045
v 0.007404 0.039043 0.025415
v -0.074655 0.015325 0.001909
v -0.075790 0.038982 0.036914
v -0.060064 0.025237 -0.037548
v -0.087778 0.041451 -0.024678
v -0.019760 0.033420 -0.046206
v 0.014386 0.054797 -0.021810
v 0.021642 0.087127 -0.007052
v 0.023513 0.069035 0.011804
v -0.000108 0.057023 0.045971
v -0.013426 0.088694 0.055804
v -0.087947 0.083818 0.040946
v -0.098413 0.075264 0.026058
v -0.092702 0.088778 -0.032093
v -0.075287 0.059973 -0.049569
v -0.002757 0.075474 -0.051750
v -0.036195 0.108233 -0.001018
v -0.080824 0.110520 0.013033
v -0.042416 0.108232 0.003126
v -0.057637 0.019013 0.034484
v -0.071045 0.027670 -0.031719
v -0.092309 0.059238 0.029297
v -0.027329 0.064547 -0.062170
v 0.005141 0.071914 0.046603
v 0.007355 0.091614 0.037547
v -0.099184 0.092292 0.009853
v 0.004105 0.105053 0.021434
v -0.082592 0.108404 -0.017793
v -0.035536 0.109675 -0.043207
v 0.001747 0.109102 -0.007709
v -0.003886 0.037977 0.039401
v -0.041696 0.022743 -0.040291
v -0.038325 0.012537 -0.023089
v 0.019579 0.057095 -0.011130
v -0.027197 0.057749 0.059264
v -0.096731 0.050020 0.002117
v -0.051079 0.075054 0.061031
v -0.076172 0.090915 0.047422
v -0.000981 0.062220 -0.047741
v -0.090673 0.104041 0.010373
v -0.043129 0.108569 -0.003260
vn 0.1711 -0.5685 0.8047
vn 0.2919 -0.7810 0.5522
vn 0.5708 -0.4856 0.6621
vn 0.0729 -0.8216 0.5653
vn -0.0020 -0.9977 0.0675
vn -0.0530 -0.9567 0.2862
vn -0.1260 -0.6783 0.7239
vn 0.0805 -0.9895 -0.1201
vn 0.0211 -0.9901 0.1387
vn 0.8398 -0.5373 0.0784
vn 0.8094 -0.4420 0.3866
vn 0.5967 -0.7398 0.3108
vn 0.5470 -0.8357 0.0489
vn 0.5280 -0.8159 -0.2358
vn 0.2706 -0.9622 0.0312
vn 0.0446 -0.9987 0.0235
vn 0.0714 -0.9687 0.2379
vn -0.3754 -0.4567 0.8065
vn -0.6310 -0.4632 0.6223
vn -0.3848 -0.7137 0.5853
vn -0.2627 -0.9608 0.0883
vn -0.6667 -0.5519 0.5009
vn -0.6002 -0.7500 0.2779
vn -0.8379 -0.5033 0.2111
vn 0.2050 -0.9715 0.1191
vn 0.0416 -0.9986 -0.0326
vn -0.3628 -0.8718 -0.3291
vn -0.0833 -0.9017 -0.4243
vn 0.1249 -0.7287 -0.6734
vn -0.0672 -0.7235 -0.6870
vn -0.0079 -0.4843 -0.8748
vn -0.3384 -0.6503 -0.6802
vn -0.3067 -0.4465 -0.8406
vn 0.0574 -0.9484 -0.3119
vn 0.3682 -0.5257 -0.7668
vn 0.6797 -0.4944 -0.5419
vn 0.4120 -0.7450 -0.5245
vn -0.1377 -0.9769 0.1633
vn 0.8851 -0.3470 0.3100
vn 0.9456 -0.3248 0.0215
vn 0.9620 -0.0769 0.2621
vn 0.9592 0.0315 -0.2810
vn 0.9230 0.3675 -0.1143
vn 0.9913 0.1062 0.0772
vn 0.9000 -0.3697 -0.2307
vn 0.8005 -0.5925 -0.0902
vn 0.7967 -0.5177 -0.3117
vn -0.0845 -0.4591 0.8844
vn 0.1763 -0.3047 0.9360
vn 0.3503 0.0212 0.9364
vn 0.0945 0.4138 0.9055
vn 0.0611 0.0100 0.9981
vn -0.8194 -0.3507 0.4534
vn -0.9181 -0.0279 0.3953
vn -0.7939 -0.1437 0.5908
vn -0.7068 0.1865 0.6823
vn -0.6110 -0.2221 0.7598
vn -0.5601 -0.6227 -0.5464
vn -0.5835 -0.4594 -0.6697
vn -0.7127 -0.2953 -0.6363
vn -0.6529 0.0527 -0.7556
vn -0.5363 -0.2442 -0.8079
vn -0.9408 0.0570 -0.3341
vn -0.8595 -0.2842 -0.4248
vn -0.9618 -0.1995 -0.1877
vn -0.8248 -0.0325 -0.5645
vn -0.8606 -0.4807 -0.1681
vn -0.7702 -0.4722 -0.4287
vn -0.9167 -0.3918 0.0786
vn 0.6648 -0.2804 -0.6924
vn 0.1085 0.0663 -0.9919
vn 0.1182 0.5338 -0.8373
vn 0.4040 0.2970 -0.8652
vn 0.4539 -0.0965 -0.8858
vn 0.1584 -0.2407 -0.9576
vn -0.1348 -0.2464 -0.9597
vn 0.8431 0.3754 0.3850
vn 0.8733 0.4664 0.1409
vn 0.8383 -0.0895 0.5379
vn 0.7306 0.4224 0.5365
vn 0.7014 -0.0301 0.7122
vn 0.3663 0.3847 0.8472
vn 0.6007 0.2777 0.7497
vn 0.5260 0.6397 0.5604
vn 0.4488 -0.3270 0.8317
vn -0.3487 -0.1745 0.9209
vn -0.1097 -0.2331 0.9662
vn -0.1813 0.0827 0.9799
vn -0.1913 0.3312 0.9240
vn -0.4458 0.0995 0.8896
vn -0.4267 0.5970 0.6793
vn -0.4939 0.3295 0.8047
vn -0.9734 0.1331 0.1863
vn -0.7792 0.4458 0.4406
vn -0.9077 0.4073 0.1010
vn -0.9854 -0.1659 0.0372
vn -0.9000 -0.3447 0.2666
vn -0.9765 0.1768 -0.1235
vn -0.8126 0.5256 -0.2519
vn -0.7890 0.6112 -0.0627
vn -0.4035 0.4629 -0.7892
vn -0.4300 0.1676 -0.8871
vn -0.6103 0.4093 -0.6782
vn -0.3644 -0.1421 -0.9203
vn -0.1681 0.3829 -0.9084
vn 0.6934 0.2752 -0.6660
vn 0.5602 0.5933 -0.5781
vn 0.7393 0.6576 -0.1447
vn 0.7959 0.4271 -0.4290
vn 0.8547 -0.0542 -0.5162
vn 0.8202 -0.4083 -0.4007
vn 0.1015 0.9617 0.2545
vn 0.1582 0.7270 0.6682
vn 0.3247 0.8715 0.3675
vn 0.5712 0.7862 0.2358
vn 0.2355 0.9719 0.0036
vn 0.0102 0.9999 -0.0089
vn -0.0314 0.9995 0.0038
vn -0.2234 0.9741 0.0353
vn -0.2336 0.8507 0.4709
vn -0.1422 0.9647 0.2215
vn -0.3914 0.9143 0.1044
vn -0.5006 0.7787 0.3782
vn -0.0743 0.8289 0.5545
vn -0.1355 0.5982 0.7898
vn -0.4835 0.8575 -0.1757
vn -0.1582 0.9676 -0.1969
vn -0.4930 0.7385 -0.4599
vn -0.6865 0.7173 0.1191
vn -0.0443 0.9990 -0.0042
vn 0.1664 0.9679 0.1883
vn 0.0302 0.9979 0.0575
vn 0.0319 0.8804 -0.4731
vn 0.1154 0.9767 -0.1811
vn 0.3244 0.8553 -0.4040
vn 0.3585 0.6024 -0.7131
vn -0.1240 0.6594 -0.7415
vn -0.2825 0.7671 -0.5761
vn 0.6931 0.7147 0.0935
vn 0.4491 0.8887 -0.0922
vn 0.3538 -0.4457 0.8223
vn -0.1620 -0.9868 -0.0074
vn 0.1148 -0.9379 -0.3273
vn -0.6298 -0.7753 -0.0477
vn -0.6953 -0.6593 -0.2861
vn 0.8870 -0.4615 0.0171
vn 0.6146 -0.3419 0.7109
vn 0.7724 -0.3359 0.5390
vn -0.7960 0.3607 -0.4862
vn 0.3868 -0.3768 -0.8417
vn 0.6454 0.0599 -0.7615
vn -0.1277 0.1067 -0.9861
vn 0.5998 0.7339 -0.3189
vn -0.1025 0.9922 -0.0710
vn 0.1169 0.9741 -0.1935
vt 0.538268 0.308388
vt 0.600410 0.203313
vt 0.616447 0.344977
vt 0.492835 0.191142
vt 0.566655 0.097128
vt 0.456738 0.141527
vt 0.462235 0.238391
vt 0.382029 0.088004
vt 0.491332 0.014526
vt 0.724758 0.303468
vt 0.671884 0.357446
vt 0.656272 0.219342
vt 0.691752 0.185485
vt 0.820894 0.176812
vt 0.739347 0.132124
vt 0.818965 0.105140
vt 0.631074 0.135343
vt 0.431905 0.352537
vt 0.378321 0.351201
vt 0.421811 0.221988
vt 0.297641 0.132577
vt 0.360032 0.292069
vt 0.310829 0.199650
vt 0.283778 0.311024
vt 0.236203 0.053507
vt 0.075828 0.087707
vt 0.129007 0.158382
vt 0.058344 0.145574
vt 0.953579 0.243820
vt 1.007362 0.235258
vt 0.998562 0.335449
vt 0.071857 0.254461
vt 0.023148 0.221338
vt 0.015999 0.349637
vt 0.051964 0.370861
vt 0.987528 0.118677
vt 0.930227 0.315072
vt 0.863594 0.316306
vt 0.878000 0.196176
vt 0.879996 0.039243
vt 1.049520 0.075833
vt 1.053357 0.028408
vt 0.705292 0.451301
vt 0.747307 0.471552
vt 0.720391 0.519155
vt 0.787239 0.553374
vt 0.767324 0.616023
vt 0.744515 0.561234
vt 0.775639 0.447077
vt 0.764090 0.279051
vt 0.804200 0.306381
vt 0.485059 0.345457
vt 0.533605 0.453068
vt 0.567550 0.545415
vt 0.536377 0.645049
vt 0.515786 0.535275
vt 0.334738 0.464316
vt 0.316822 0.553113
vt 0.346171 0.523645
vt 0.363463 0.596650
vt 0.394871 0.480285
vt 0.123753 0.269577
vt 0.116599 0.371987
vt 0.131610 0.456527
vt 0.123276 0.562089
vt 0.096258 0.469638
vt 0.188594 0.564470
vt 0.170323 0.461778
vt 0.213654 0.484266
vt 0.153858 0.538524
vt 0.213568 0.353848
vt 0.173128 0.353449
vt 0.254741 0.392356
vt 0.883824 0.469410
vt 0.975248 0.552471
vt 0.975294 0.666175
vt 0.933979 0.609656
vt 0.930151 0.523766
vt 0.968613 0.488904
vt 0.018067 0.468168
vt 0.675926 0.625428
vt 0.733319 0.642659
vt 0.653409 0.522052
vt 0.638852 0.636705
vt 0.622463 0.533270
vt 0.570272 0.621636
vt 0.605272 0.600081
vt 0.619462 0.695034
vt 0.581293 0.486459
vt 0.441866 0.490665
vt 0.481928 0.473585
vt 0.471025 0.550327
vt 0.470503 0.622703
vt 0.422867 0.556089
vt 0.396115 0.690925
vt 0.396209 0.633521
vt 0.289116 0.584046
vt 0.329817 0.648274
vt 0.277318 0.643010
vt 0.257365 0.497497
vt 0.290779 0.467169
vt 0.223937 0.594264
vt 0.199632 0.665414
vt 0.238011 0.694073
vt 0.085129 0.653321
vt 0.083588 0.591925
vt 0.120814 0.636037
vt 0.063371 0.488692
vt 0.023197 0.634249
vt 0.874799 0.604063
vt 0.882940 0.683062
vt 0.777830 0.695884
vt 0.824276 0.641375
vt 0.826444 0.541493
vt 0.814180 0.442520
vt 0.579497 0.795689
vt 0.546740 0.715105
vt 0.612506 0.750067
vt 0.679307 0.733610
vt 0.761852 0.824438
vt 0.501092 0.885540
vt 0.796627 0.893212
vt 0.786040 0.974989
vt 0.402386 0.765942
vt 0.396101 0.814271
vt 0.299278 0.777194
vt 0.350554 0.730757
vt 0.478845 0.754919
vt 0.477338 0.687641
vt 0.185401 0.749773
vt 0.125976 0.809970
vt 0.129717 0.724413
vt 0.281938 0.720372
vt 0.279994 0.865308
vt 0.134615 0.974439
vt 0.069427 0.888282
vt 0.986910 0.772406
vt 0.932009 0.812144
vt 0.903384 0.757046
vt 0.928503 0.680303
vt 0.025170 0.785129
vt 0.022423 0.702546
vt 0.084295 0.730675
vt 0.736342 0.699395
vt 0.783655 0.767506
vt 1.006739 0.885076
vt 0.568618 0.364699
vt 0.694521 0.074120
vt 0.883174 0.140818
vt 0.255936 0.190025
vt 0.192193 0.249588
vt 0.020701 0.134633
vt 1.049026 0.116416
vt 0.749545 0.404511
vt 0.609580 0.459323
vt 0.640504 0.433273
vt 0.162709 0.621525
vt 0.933678 0.439657
vt 1.004481 0.477874
vt 0.900955 0.555267
vt 0.995806 0.359110
vt 0.013778 0.576873
vt 0.999565 0.575191
vt 1.007218 0.643821
vt 1.012252 0.698564
vt 0.818638 0.714594
vt 0.715241 0.986913
vt 0.412549 0.974631
vt 0.633765 0.986832
vt 0.050001 0.858821
vt 1.113254 0.979172
s 1
usemtl Material.002
f 113/1/1 46/2/2 145/3/3
f 89/4/4 47/5/5 46/2/2
f 46/2/2 113/1/1 89/4/4
f 57/6/6 47/5/5 89/4/4
f 89/4/4 1/7/7 57/6/6
f 6/8/8 51/9/9 47/5/5
f 70/10/10 115/11/11 2/12/12
f 70/10/10 2/12/12 90/13/13
f 3/14/14 91/15/15 69/16/16
f 91/15/15 90/13/13 112/17/17
f 52/18/18 117/19/19 134/20/20
f 134/20/20 1/7/7 52/18/18
f 57/6/6 1/7/7 134/20/20
f 134/20/20 5/21/21 57/6/6
f 134/20/20 59/22/22 92/23/23
f 72/24/24 92/23/23 59/22/22
f 5/21/21 71/25/25 6/8/8
f 71/25/25 51/9/9 6/8/8
f 73/26/26 93/27/27 60/28/28
f 73/26/26 5/21/21 93/27/27
f 73/26/26 71/25/25 5/21/21
f 48/29/29 146/30/30 20/31/31
f 60/28/28 118/32/32 146/33/30
f 118/32/32 20/34/31 146/33/30
f 20/34/31 118/32/32 53/35/33
f 147/36/34 146/30/30 48/29/29
f 120/37/35 54/38/36 10/39/37
f 10/39/37 54/38/36 3/14/14
f 147/36/34 11/40/38 73/41/26
f 11/40/38 71/42/25 73/41/26
f 12/43/39 95/44/40 123/45/41
f 74/46/42 122/47/43 75/48/44
f 148/49/45 58/50/46 114/51/47
f 68/52/48 113/1/1 149/53/49
f 14/54/50 34/55/51 77/56/52
f 117/19/19 136/57/53 59/22/22
f 127/58/54 96/59/55 126/60/56
f 126/60/56 96/59/55 62/61/57
f 117/19/19 52/18/18 62/61/57
f 118/32/32 135/62/58 16/63/59
f 17/64/60 79/65/61 129/66/62
f 78/67/63 97/68/64 24/69/65
f 79/65/61 17/64/60 98/70/66
f 97/68/64 8/71/67 24/69/65
f 119/72/68 8/71/67 97/68/64
f 150/73/69 8/71/67 72/24/24
f 54/38/36 120/37/35 153/74/70
f 81/75/71 84/76/72 18/77/73
f 19/78/74 137/79/75 81/75/71
f 20/34/31 53/35/33 80/80/76
f 123/45/41 75/48/44 44/81/77
f 55/82/78 44/81/77 75/48/44
f 100/83/79 123/45/41 44/81/77
f 100/83/79 139/84/80 138/85/81
f 125/86/82 101/87/83 82/88/84
f 14/54/50 61/89/85 138/85/81
f 101/87/83 14/54/50 138/85/81
f 103/90/86 22/91/87 151/92/88
f 151/92/88 102/93/89 21/94/90
f 21/94/90 126/60/56 62/61/57
f 64/95/91 152/96/92 102/93/89
f 52/18/18 68/52/48 22/91/87
f 104/97/93 15/98/94 140/99/95
f 23/100/96 63/101/97 127/58/54
f 127/58/54 104/97/93 23/100/96
f 25/102/98 23/100/96 104/97/93
f 83/103/99 140/99/95 36/104/100
f 25/102/98 83/103/99 78/67/63
f 78/67/63 24/69/65 25/102/98
f 85/105/101 105/106/102 26/107/103
f 79/65/61 105/106/102 45/108/104
f 27/109/105 105/106/102 85/105/101
f 80/80/76 53/35/33 45/108/104
f 29/110/106 18/77/73 28/111/107
f 122/47/43 42/112/108 55/82/78
f 49/113/109 122/47/43 74/46/42
f 74/46/42 30/114/110 49/113/109
f 30/114/110 74/46/42 121/115/111
f 50/116/112 31/117/113 107/118/114
f 31/117/113 125/86/82 82/88/84
f 125/86/82 31/117/113 34/55/51
f 107/118/114 141/119/115 65/120/116
f 33/121/117 43/122/118 131/123/119
f 33/121/117 50/116/112 43/122/118
f 108/124/120 66/125/121 132/126/122
f 87/127/123 15/98/94 64/95/91
f 109/128/124 64/95/91 35/129/125
f 109/128/124 31/117/113 50/116/112
f 34/55/51 31/117/113 35/129/125
f 142/130/126 38/131/127 40/132/128
f 142/130/126 40/132/128 83/103/99
f 154/133/129 132/126/122 142/130/126
f 38/131/127 132/126/122 88/134/130
f 88/134/130 132/126/122 66/125/121
f 155/135/131 39/136/132 88/134/130
f 39/136/132 38/131/127 88/134/130
f 132/126/122 154/133/129 87/127/123
f 143/137/133 67/138/134 111/139/135
f 143/137/133 86/140/136 84/76/72
f 143/141/133 37/142/137 110/143/138
f 110/143/138 85/105/101 40/132/128
f 37/142/137 85/105/101 110/143/138
f 32/144/139 55/82/78 42/112/108
f 42/112/108 144/145/140 32/144/139
f 111/139/135 67/138/134 144/145/140
f 43/122/118 39/146/132 131/123/119
f 67/138/134 39/146/132 65/120/116
f 145/3/3 13/147/141 113/1/1
f 2/12/12 145/3/3 46/2/2
f 145/3/3 2/12/12 115/11/11
f 112/17/17 46/2/2 47/5/5
f 112/17/17 2/12/12 46/2/2
f 52/18/18 1/7/7 68/52/48
f 1/7/7 89/4/4 113/1/1
f 68/52/48 1/7/7 113/1/1
f 6/8/8 47/5/5 57/6/6
f 4/148/142 47/5/5 51/9/9
f 112/17/17 47/5/5 4/148/142
f 90/13/13 2/12/12 112/17/17
f 90/13/13 91/15/15 3/14/14
f 3/14/14 58/50/46 90/13/13
f 90/13/13 58/50/46 70/10/10
f 54/38/36 114/51/47 3/14/14
f 114/51/47 58/50/46 3/14/14
f 3/14/14 69/16/16 9/149/143
f 4/148/142 69/16/16 91/15/15
f 51/9/9 11/40/38 4/148/142
f 69/16/16 4/148/142 11/40/38
f 4/148/142 91/15/15 112/17/17
f 59/22/22 134/20/20 117/19/19
f 5/21/21 134/20/20 92/23/23
f 116/150/144 5/21/21 92/23/23
f 72/24/24 116/150/144 92/23/23
f 6/8/8 57/6/6 5/21/21
f 119/72/68 7/151/145 8/71/67
f 135/62/58 7/151/145 119/72/68
f 7/151/145 116/150/144 8/71/67
f 116/150/144 72/24/24 8/71/67
f 7/151/145 93/27/27 116/150/144
f 7/151/145 135/62/58 93/27/27
f 93/27/27 135/62/58 118/32/32
f 93/27/27 118/32/32 60/28/28
f 5/21/21 116/150/144 93/27/27
f 20/31/31 120/37/35 48/29/29
f 147/36/34 48/29/29 9/149/143
f 60/28/28 146/33/30 147/152/34
f 48/29/29 120/37/35 10/39/37
f 9/149/143 48/29/29 10/39/37
f 10/39/37 3/14/14 9/149/143
f 69/16/16 147/36/34 9/149/143
f 69/16/16 11/40/38 147/36/34
f 51/9/9 71/42/25 11/40/38
f 60/153/28 147/36/34 73/41/26
f 115/11/11 70/10/10 12/43/39
f 12/43/39 70/10/10 94/154/146
f 70/10/10 58/50/46 94/154/146
f 94/154/146 58/50/46 148/49/45
f 95/44/40 94/154/146 148/49/45
f 12/43/39 94/154/146 95/44/40
f 148/49/45 121/115/111 74/46/42
f 122/47/43 55/82/78 75/48/44
f 95/44/40 148/49/45 74/46/42
f 95/44/40 74/46/42 75/48/44
f 123/45/41 95/44/40 75/48/44
f 54/38/36 121/115/111 148/49/45
f 148/49/45 114/51/47 54/38/36
f 149/53/49 22/91/87 68/52/48
f 22/91/87 149/53/49 77/56/52
f 13/147/141 149/53/49 113/1/1
f 149/53/49 13/147/141 124/155/147
f 149/53/49 124/155/147 61/89/85
f 125/86/82 34/55/51 14/54/50
f 14/54/50 77/56/52 149/53/49
f 149/53/49 61/89/85 14/54/50
f 124/155/147 13/147/141 145/3/3
f 145/3/3 76/156/148 124/155/147
f 136/57/53 63/101/97 150/73/69
f 136/57/53 150/73/69 72/24/24
f 59/22/22 136/57/53 72/24/24
f 117/19/19 62/61/57 136/57/53
f 62/61/57 96/59/55 136/57/53
f 136/57/53 127/58/54 63/101/97
f 127/58/54 126/60/56 15/98/94
f 96/59/55 127/58/54 136/57/53
f 129/66/62 16/63/59 17/64/60
f 53/35/33 16/63/59 129/66/62
f 53/35/33 118/32/32 16/63/59
f 17/64/60 16/63/59 119/72/68
f 97/68/64 17/64/60 119/72/68
f 16/63/59 135/62/58 119/72/68
f 17/64/60 97/68/64 98/70/66
f 128/157/149 79/65/61 98/70/66
f 98/70/66 78/67/63 128/157/149
f 78/67/63 98/70/66 97/68/64
f 120/37/35 99/158/150 153/74/70
f 120/37/35 20/31/31 99/158/150
f 99/158/150 20/31/31 137/79/75
f 99/158/150 137/79/75 19/78/74
f 19/78/74 153/74/70 99/158/150
f 19/78/74 81/75/71 18/77/73
f 137/79/75 80/159/76 81/75/71
f 130/160/151 153/74/70 19/78/74
f 80/159/76 137/79/75 20/161/31
f 44/81/77 139/84/80 100/83/79
f 139/84/80 101/87/83 138/85/81
f 14/54/50 101/87/83 125/86/82
f 82/88/84 101/87/83 139/84/80
f 100/83/79 138/85/81 124/155/147
f 138/85/81 61/89/85 124/155/147
f 100/83/79 124/155/147 76/156/148
f 76/156/148 12/43/39 100/83/79
f 145/3/3 115/11/11 76/156/148
f 76/156/148 115/11/11 12/43/39
f 12/43/39 123/45/41 100/83/79
f 35/129/125 64/95/91 102/93/89
f 102/93/89 151/92/88 77/56/52
f 34/55/51 102/93/89 77/56/52
f 34/55/51 35/129/125 102/93/89
f 22/91/87 77/56/52 151/92/88
f 151/92/88 21/94/90 103/90/86
f 102/93/89 152/96/92 21/94/90
f 62/61/57 103/90/86 21/94/90
f 152/96/92 64/95/91 126/60/56
f 126/60/56 64/95/91 15/98/94
f 152/96/92 126/60/56 21/94/90
f 22/91/87 103/90/86 52/18/18
f 103/90/86 62/61/57 52/18/18
f 15/98/94 104/97/93 127/58/54
f 140/99/95 83/103/99 25/102/98
f 140/99/95 25/102/98 104/97/93
f 24/69/65 23/100/96 25/102/98
f 78/67/63 83/103/99 128/157/149
f 23/100/96 24/69/65 150/73/69
f 150/73/69 24/69/65 8/71/67
f 63/101/97 23/100/96 150/73/69
f 85/105/101 37/142/137 27/109/105
f 79/65/61 26/107/103 105/106/102
f 26/107/103 79/65/61 128/157/149
f 45/108/104 105/106/102 106/162/152
f 106/162/152 105/106/102 27/109/105
f 106/163/152 27/164/105 84/76/72
f 106/163/152 84/76/72 81/75/71
f 106/163/152 81/75/71 80/159/76
f 27/164/105 37/165/137 84/76/72
f 45/108/104 106/162/152 80/80/76
f 53/35/33 129/66/62 45/108/104
f 129/66/62 79/65/61 45/108/104
f 28/111/107 18/77/73 86/140/136
f 29/110/106 130/160/151 18/77/73
f 130/160/151 19/78/74 18/77/73
f 86/140/136 18/77/73 84/76/72
f 29/110/106 30/114/110 130/160/151
f 153/74/70 130/160/151 30/114/110
f 29/110/106 28/111/107 49/113/109
f 49/113/109 30/114/110 29/110/106
f 42/112/108 122/47/43 49/113/109
f 49/113/109 28/111/107 41/166/153
f 49/113/109 41/166/153 42/112/108
f 121/115/111 153/74/70 30/114/110
f 153/74/70 121/115/111 54/38/36
f 107/118/114 31/117/113 82/88/84
f 82/88/84 141/119/115 107/118/114
f 107/118/114 65/120/116 50/116/112
f 131/123/119 56/167/154 133/168/155
f 33/121/117 131/123/119 133/168/155
f 43/122/118 50/116/112 65/120/116
f 65/120/116 141/119/115 144/145/140
f 32/144/139 144/145/140 141/119/115
f 32/144/139 141/119/115 55/82/78
f 141/119/115 44/81/77 55/82/78
f 108/124/120 132/126/122 87/127/123
f 108/124/120 87/127/123 64/95/91
f 64/95/91 109/128/124 108/124/120
f 108/124/120 109/128/124 66/125/121
f 66/125/121 50/116/112 33/121/117
f 109/128/124 50/116/112 66/125/121
f 133/168/155 88/134/130 33/121/117
f 33/121/117 88/134/130 66/125/121
f 35/129/125 31/117/113 109/128/124
f 83/103/99 36/104/100 142/130/126
f 83/103/99 40/132/128 128/157/149
f 142/130/126 36/104/100 154/133/129
f 142/130/126 132/126/122 38/131/127
f 155/135/131 88/134/130 133/168/155
f 133/168/155 56/169/154 155/135/131
f 15/98/94 87/127/123 154/133/129
f 154/133/129 140/99/95 15/98/94
f 154/133/129 36/104/100 140/99/95
f 84/76/72 37/165/137 143/137/133
f 38/131/127 143/141/133 110/143/138
f 44/81/77 141/119/115 82/88/84 139/84/80
f 38/131/127 67/170/134 143/141/133
f 131/123/119 39/146/132 155/171/131
f 155/171/131 56/167/154 131/123/119
f 39/136/132 67/170/134 38/131/127
f 38/131/127 110/143/138 40/132/128
f 40/132/128 26/107/103 128/157/149
f 40/132/128 85/105/101 26/107/103
f 42/112/108 41/166/153 144/145/140
f 41/166/153 111/139/135 144/145/140
f 111/139/135 41/166/153 28/111/107
f 144/145/140 67/138/134 65/120/116
f 65/120/116 39/146/132 43/122/118
f 111/139/135 28/111/107 86/140/136
f 86/140/136 143/137/133 111/139/135
