# Blender 4.1.1
# www.blender.org
mtllib banana.mtl
o Banana_Cylinder
v -0.074556 0.036009 -0.128978
v -0.060259 0.037389 0.108326
v -0.074215 0.046012 -0.130865
v -0.059388 0.045026 0.110993
v -0.068962 0.050150 -0.139022
v -0.055841 0.048498 0.117432
v -0.063014 0.047094 -0.147182
v -0.051696 0.045767 0.123869
v -0.060768 0.037338 -0.149069
v -0.049382 0.038438 0.126535
v -0.061109 0.027335 -0.147182
v -0.050254 0.030801 0.123869
v -0.066362 0.023200 -0.139022
v -0.053801 0.027328 0.117432
v -0.072310 0.026255 -0.130865
v -0.057946 0.030057 0.110993
v -0.028584 0.040444 -0.054110
v -0.030854 0.040226 0.061450
v -0.026719 0.063681 0.063151
v -0.025382 0.062351 -0.055229
v -0.007358 0.070197 0.068472
v -0.005849 0.071930 -0.059539
v 0.012893 0.067502 0.073790
v 0.015156 0.066261 -0.063850
v 0.021432 0.045268 0.075492
v 0.022483 0.045369 -0.064970
v 0.017297 0.021813 0.073790
v 0.019279 0.023462 -0.063850
v -0.002066 0.015297 0.068472
v -0.000252 0.013883 -0.059539
v -0.022315 0.017992 0.063151
v -0.021257 0.019552 -0.055229
v -0.017933 0.041471 0.021612
v -0.014546 0.064854 0.022498
v 0.005815 0.072762 0.025822
v 0.027312 0.068891 0.029146
v 0.035102 0.046588 0.030034
v 0.031716 0.023205 0.029146
v 0.011354 0.015297 0.025822
v -0.010142 0.019166 0.022498
v -0.119604 0.028478 0.146993
v -0.120274 0.028413 0.145874
v -0.115598 0.028864 0.153698
v -0.111593 0.029250 0.160406
v -0.110926 0.029315 0.161525
v -0.041748 0.039174 0.082452
v -0.038698 0.060705 0.085793
v -0.023762 0.066208 0.095875
v -0.008050 0.063662 0.105958
v -0.000946 0.043110 0.109298
v -0.003994 0.021580 0.105958
v -0.018929 0.016074 0.095875
v -0.034642 0.018623 0.085793
v -0.085200 0.034982 -0.142793
v -0.085692 0.038620 -0.143642
v -0.083844 0.039734 -0.146539
v -0.083309 0.038951 -0.150396
v -0.081574 0.035332 -0.150271
v -0.082394 0.031396 -0.149926
v -0.082961 0.030578 -0.146539
v -0.085411 0.031146 -0.144074
v -0.048197 0.058367 -0.096972
v -0.033449 0.066551 -0.105427
v -0.017410 0.061338 -0.113880
v -0.011134 0.042126 -0.116285
v -0.013625 0.022070 -0.113880
v -0.028373 0.013888 -0.105427
v -0.044412 0.019101 -0.096972
v -0.050688 0.038313 -0.094567
v -0.048917 0.038483 0.093538
v -0.047218 0.055991 0.097205
v -0.037111 0.059349 0.108499
v -0.026551 0.057983 0.119791
v -0.021538 0.041123 0.123458
v -0.023237 0.023615 0.119791
v -0.033343 0.020255 0.108499
v -0.043906 0.021621 0.097205
v -0.014366 0.064142 -0.022610
v 0.005710 0.073494 -0.023436
v 0.027204 0.068152 -0.024259
v 0.034934 0.046571 -0.024482
v 0.031469 0.023908 -0.024259
v 0.011390 0.014558 -0.023436
v -0.010102 0.019900 -0.022610
v -0.017834 0.041481 -0.022387
v -0.060614 0.053133 -0.115032
v -0.050683 0.059769 -0.124586
v -0.039670 0.055154 -0.134138
v -0.035302 0.039796 -0.136750
v -0.036655 0.023886 -0.134138
v -0.046586 0.017250 -0.124586
v -0.057600 0.021868 -0.115032
v -0.061968 0.037223 -0.112421
v -0.091294 0.028410 0.132516
v -0.099384 0.025842 0.134441
v -0.097394 0.033755 0.130289
v -0.092868 0.034242 0.131042
v -0.099110 0.041200 0.133337
v -0.092438 0.040269 0.132516
v -0.089657 0.042158 0.137683
v -0.093374 0.043826 0.139776
v -0.090686 0.041831 0.148255
v -0.086345 0.040857 0.142718
v -0.085200 0.028998 0.142718
v -0.089162 0.026500 0.148231
v -0.091735 0.024551 0.139906
v -0.088205 0.027088 0.137683
v -0.087650 0.034542 0.149234
v -0.084950 0.035008 0.144300
v -0.085632 0.034941 -0.141902
v -0.086150 0.039441 -0.142870
v -0.083950 0.040823 -0.146539
v -0.083016 0.039846 -0.151171
v -0.081142 0.035375 -0.151162
v -0.081936 0.030573 -0.150698
v -0.082855 0.029488 -0.146539
v -0.085704 0.030251 -0.143299
v -0.084761 0.035025 -0.142577
v -0.085152 0.038670 -0.143378
v -0.083357 0.039782 -0.146302
v -0.082769 0.039004 -0.150132
v -0.081134 0.035375 -0.150055
v -0.081852 0.031446 -0.149659
v -0.082476 0.030626 -0.146302
v -0.084871 0.031197 -0.143808
v -0.082879 0.035207 -0.146282
vn -0.7968 0.2229 -0.5616
vn -0.5321 0.8424 0.0852
vn -0.3078 0.8388 0.4491
vn 0.0544 0.2683 0.9618
vn 0.1047 -0.2529 0.9618
vn -0.1418 -0.8821 0.4492
vn -0.4729 -0.4351 -0.7662
vn -0.3613 -0.9285 0.0852
vn -0.7396 -0.3709 -0.5616
vn -0.1015 -0.8967 -0.4308
vn -0.8254 -0.3208 0.4645
vn -0.8933 -0.3443 -0.2888
vn -0.2338 -0.9619 0.1417
vn -0.1433 -0.9880 -0.0580
vn 0.3795 -0.8966 -0.2285
vn 0.3230 -0.9423 0.0880
vn 0.8288 -0.1576 -0.5368
vn 0.9426 -0.1673 0.2888
vn 0.7835 0.3129 -0.5369
vn 0.8933 0.3443 0.2888
vn 0.2011 0.9526 -0.2285
vn 0.1370 0.9867 0.0880
vn -0.4133 0.8995 0.1417
vn -0.3296 0.9423 -0.0580
vn -0.8715 0.1572 0.4645
vn -0.9426 0.1673 -0.2889
vn -0.9891 0.1473 -0.0043
vn -0.3926 0.9197 -0.0001
vn 0.2096 0.9778 -0.0005
vn 0.9428 0.3334 -0.0047
vn 0.9891 -0.1471 -0.0047
vn 0.3925 -0.9197 -0.0005
vn -0.2095 -0.9778 -0.0001
vn -0.9427 -0.3335 -0.0043
vn -0.6172 0.3143 -0.7213
vn -0.3980 0.8773 0.2683
vn -0.0517 -0.9832 0.1753
vn 0.3103 0.4084 0.8585
vn -0.1273 -0.9907 0.0483
vn -0.4688 0.8708 0.1479
vn 0.4583 -0.3383 0.8219
vn -0.8244 -0.3535 -0.4420
vn -0.1252 -0.9911 -0.0451
vn 0.2559 -0.9512 0.1726
vn 0.8216 -0.1914 0.5369
vn 0.7700 0.3448 0.5369
vn 0.0693 0.9826 0.1726
vn -0.3123 0.9489 -0.0451
vn -0.8768 0.1896 -0.4420
vn 0.0111 0.9768 -0.2138
vn 0.1109 0.1615 -0.9806
vn -0.3505 -0.9356 0.0429
vn -0.5368 0.8419 0.0547
vn 0.1280 -0.1651 -0.9779
vn -0.7102 -0.2560 0.6558
vn -0.7475 0.1195 0.6534
vn -0.2723 0.8660 -0.4195
vn -0.8365 0.1624 0.5233
vn -0.4657 0.8807 0.0866
vn 0.0797 0.9204 -0.3827
vn 0.5996 0.2927 -0.7448
vn 0.6445 -0.1728 -0.7448
vn 0.2542 -0.8882 -0.3826
vn -0.2888 -0.9535 0.0866
vn -0.7901 -0.3192 0.5234
vn -0.7733 -0.3495 -0.5290
vn -0.2119 -0.9738 0.0821
vn 0.0697 -0.9477 0.3114
vn 0.5617 -0.2119 0.7997
vn 0.5109 0.3153 0.7998
vn -0.1128 0.9436 0.3114
vn -0.3941 0.9154 0.0822
vn -0.8258 0.1954 -0.5290
vn -0.8927 -0.3263 0.3109
vn -0.2391 -0.9665 0.0937
vn 0.4157 -0.9019 -0.1175
vn 0.9458 -0.1502 -0.2879
vn 0.8997 0.3281 -0.2879
vn 0.2357 0.9647 -0.1176
vn -0.4194 0.9029 0.0937
vn -0.9386 0.1498 0.3109
vn -0.7432 -0.3027 0.5967
vn -0.3456 -0.9354 0.0743
vn 0.0954 -0.8847 -0.4562
vn 0.4426 -0.1814 -0.8782
vn 0.3998 0.2626 -0.8782
vn -0.0754 0.8867 -0.4562
vn -0.5180 0.8522 0.0743
vn -0.7873 0.1551 0.5967
vn 0.4572 -0.2984 0.8378
vn 0.8510 -0.1963 0.4870
vn -0.3106 0.9160 -0.2538
vn 0.1051 0.8983 -0.4266
vn -0.1297 -0.9585 -0.2537
vn 0.2246 -0.8692 -0.4405
vn 0.3917 0.3803 0.8378
vn 0.7814 0.3625 0.5079
vn 0.2055 -0.9261 0.3164
vn 0.2059 -0.9259 0.3168
vn 0.5612 -0.8277 0.0048
vn 0.0252 0.9481 0.3169
vn 0.3653 0.9286 0.0643
vn -0.5586 0.2888 -0.7775
vn 0.0069 0.3188 -0.9478
vn -0.4931 -0.3902 -0.7775
vn 0.0060 -0.3784 -0.9256
vn 0.0061 -0.3784 -0.9256
vn -0.8998 -0.1984 -0.3885
vn -0.8449 -0.0328 -0.5339
vn -0.9842 0.0243 -0.1753
vn -0.7694 -0.3521 -0.5330
vn -0.8539 0.1107 -0.5085
vn -0.9541 -0.1857 -0.2349
vn -0.7413 -0.1824 -0.6460
vn -0.9340 0.1349 -0.3307
vn -0.4470 0.1701 0.8782
vn -0.0026 -0.9801 0.1984
vn 0.4467 -0.1458 -0.8827
vn 0.4029 0.2699 -0.8745
vn -0.1902 0.9612 0.2000
vn -0.4208 -0.1703 0.8910
vn 0.2064 -0.9501 -0.2339
vn -0.8202 0.0561 -0.5694
vn -0.8540 -0.1403 -0.5011
vn -0.9497 0.0213 -0.3126
vn -0.9326 -0.2433 -0.2666
vt 0.378970 0.769438
vt 0.343943 0.823099
vt 0.314949 0.813600
vt 0.332023 0.741730
vt 0.283908 0.808320
vt 0.292479 0.730246
vt 0.252525 0.806260
vt 0.260123 0.718543
vt 0.222307 0.802838
vt 0.225115 0.717347
vt 0.192026 0.804273
vt 0.190114 0.716270
vt 0.160678 0.804341
vt 0.157071 0.725857
vt 0.484148 0.167283
vt 0.485654 0.143925
vt 0.543974 0.125331
vt 0.544915 0.128530
vt 0.129259 0.807639
vt 0.116837 0.734750
vt 0.099619 0.815271
vt 0.068125 0.759354
vt 0.224291 0.072443
vt 0.201769 0.064602
vt 0.221494 0.017029
vt 0.233887 0.018598
vt 0.124752 0.155145
vt 0.090873 0.277422
vt 0.026858 0.259906
vt 0.073978 0.126596
vt 0.073951 0.507750
vt 0.089142 0.627110
vt 0.019539 0.648389
vt 0.000083 0.510660
vt 0.165240 0.175186
vt 0.144405 0.296294
vt 0.133843 0.506349
vt 0.139600 0.610790
vt 0.202614 0.188198
vt 0.192255 0.309807
vt 0.184472 0.506772
vt 0.183369 0.600326
vt 0.242293 0.192247
vt 0.238296 0.314144
vt 0.231951 0.507999
vt 0.229003 0.598190
vt 0.282146 0.190804
vt 0.284520 0.312831
vt 0.279405 0.509875
vt 0.274398 0.603295
vt 0.320285 0.180269
vt 0.333147 0.302480
vt 0.329948 0.512762
vt 0.317385 0.616589
vt 0.361995 0.162925
vt 0.387797 0.287152
vt 0.389615 0.518074
vt 0.366662 0.636166
vt 0.414533 0.137761
vt 0.452819 0.273861
vt 0.463127 0.525810
vt 0.434702 0.661950
vt 0.463127 0.381914
vt 0.392306 0.386704
vt 0.333543 0.393441
vt 0.283299 0.398443
vt 0.235524 0.398792
vt 0.187871 0.395318
vt 0.138057 0.387040
vt 0.079859 0.376473
vt 0.009499 0.367060
vt 0.476720 0.019715
vt 0.484254 0.000083
vt 0.544915 0.039003
vt 0.543925 0.042187
vt 0.464855 0.062281
vt 0.464084 0.038988
vt 0.537985 0.061280
vt 0.532142 0.080403
vt 0.469723 0.125632
vt 0.469133 0.102813
vt 0.532803 0.086932
vt 0.538329 0.106149
vt 0.463293 0.082559
vt 0.531882 0.083727
vt 0.106817 0.694653
vt 0.047557 0.721608
vt 0.150315 0.681027
vt 0.187017 0.671856
vt 0.226623 0.671126
vt 0.266098 0.674427
vt 0.302122 0.685963
vt 0.344625 0.702390
vt 0.401956 0.733149
vt 0.492346 0.220029
vt 0.501723 0.219125
vt 0.501055 0.220531
vt 0.492679 0.221502
vt 0.268034 0.073744
vt 0.246113 0.073989
vt 0.247602 0.021167
vt 0.261190 0.018610
vt 0.178609 0.051060
vt 0.211600 0.009044
vt 0.315165 0.055577
vt 0.291140 0.067457
vt 0.274919 0.018602
vt 0.286472 0.012518
vt 0.158636 0.029692
vt 0.200059 0.000083
vt 0.336398 0.035551
vt 0.296894 0.003432
vt 0.379475 0.081559
vt 0.341665 0.107785
vt 0.307898 0.123025
vt 0.276337 0.131171
vt 0.244292 0.131397
vt 0.212313 0.129080
vt 0.181347 0.118878
vt 0.148649 0.101448
vt 0.112648 0.072815
vt 0.216894 0.970644
vt 0.191393 0.968917
vt 0.215677 0.990196
vt 0.191587 0.995724
vt 0.292055 0.973402
vt 0.267298 0.972579
vt 0.294761 0.998710
vt 0.266433 0.988553
vt 0.166170 0.969305
vt 0.141594 0.968004
vt 0.165634 0.986350
vt 0.137450 0.999917
vt 0.242255 0.970275
vt 0.238885 0.996398
vt 0.316580 0.973307
vt 0.320569 0.988408
vt 0.117308 0.966599
vt 0.112904 0.981608
vt 0.502599 0.247010
vt 0.508559 0.239127
vt 0.510614 0.240094
vt 0.503887 0.249786
vt 0.493174 0.247196
vt 0.492669 0.249668
vt 0.483608 0.243771
vt 0.481297 0.245725
vt 0.482755 0.233702
vt 0.480480 0.233772
vt 0.484002 0.223656
vt 0.481610 0.221831
vt 0.491683 0.217502
vt 0.502937 0.216199
vt 0.508402 0.227514
vt 0.510614 0.226474
vt 0.485136 0.224488
vt 0.484074 0.233661
vt 0.484732 0.242900
vt 0.493546 0.245716
vt 0.501858 0.245663
vt 0.507512 0.238116
vt 0.507549 0.228661
vt 0.495758 0.233507
s 0
usemtl Banana_color.001
f 70/1/1 2/2/1 4/3/1 71/4/1
f 71/4/2 4/3/2 6/5/2 72/6/2
f 72/6/3 6/5/3 8/7/3 73/8/3
f 73/8/4 8/7/4 10/9/4 74/10/4
f 74/10/5 10/9/5 12/11/5 75/12/5
f 75/12/6 12/11/6 14/13/6 76/14/6
f 96/15/7 95/16/7 41/17/7 42/18/7
f 76/14/8 14/13/8 16/19/8 77/20/8
f 77/20/9 16/19/9 2/21/9 70/22/9
f 11/23/10 13/24/10 116/25/10 115/26/10
f 68/27/11 32/28/11 17/29/11 69/30/11
f 40/31/12 31/32/12 18/33/12 33/34/12
f 67/35/13 30/36/13 32/28/13 68/27/13
f 39/37/14 29/38/14 31/32/14 40/31/14
f 66/39/15 28/40/15 30/36/15 67/35/15
f 38/41/16 27/42/16 29/38/16 39/37/16
f 65/43/17 26/44/17 28/40/17 66/39/17
f 37/45/18 25/46/18 27/42/18 38/41/18
f 64/47/19 24/48/19 26/44/19 65/43/19
f 36/49/20 23/50/20 25/46/20 37/45/20
f 63/51/21 22/52/21 24/48/21 64/47/21
f 35/53/22 21/54/22 23/50/22 36/49/22
f 62/55/23 20/56/23 22/52/23 63/51/23
f 34/57/24 19/58/24 21/54/24 35/53/24
f 69/59/25 17/60/25 20/56/25 62/55/25
f 33/61/26 18/62/26 19/58/26 34/57/26
f 85/63/27 33/61/27 34/57/27 78/64/27
f 78/64/28 34/57/28 35/53/28 79/65/28
f 79/65/29 35/53/29 36/49/29 80/66/29
f 80/66/30 36/49/30 37/45/30 81/67/30
f 81/67/31 37/45/31 38/41/31 82/68/31
f 82/68/32 38/41/32 39/37/32 83/69/32
f 83/69/33 39/37/33 40/31/33 84/70/33
f 84/70/34 40/31/34 33/34/34 85/71/34
f 98/72/35 96/73/35 42/74/35 41/75/35
f 102/76/36 101/77/36 43/78/36 44/79/36
f 106/80/37 105/81/37 44/82/37 43/83/37
f 108/84/38 102/76/38 44/79/38 45/85/38
f 95/16/39 106/80/39 43/83/39 41/17/39
f 101/77/40 98/72/40 41/75/40 43/78/40
f 105/81/41 108/84/41 45/85/41 44/82/41
f 31/32/42 53/86/42 46/87/42 18/33/42
f 29/38/43 52/88/43 53/86/43 31/32/43
f 27/42/44 51/89/44 52/88/44 29/38/44
f 25/46/45 50/90/45 51/89/45 27/42/45
f 23/50/46 49/91/46 50/90/46 25/46/46
f 21/54/47 48/92/47 49/91/47 23/50/47
f 19/58/48 47/93/48 48/92/48 21/54/48
f 18/62/49 46/94/49 47/93/49 19/58/49
f 60/95/50 61/96/50 125/97/50 124/98/50
f 7/99/51 9/100/51 114/101/51 113/102/51
f 13/24/52 15/103/52 117/104/52 116/25/52
f 3/105/53 5/106/53 112/107/53 111/108/53
f 9/100/54 11/23/54 115/26/54 114/101/54
f 15/103/55 1/109/55 110/110/55 117/104/55
f 1/111/56 3/105/56 111/108/56 110/112/56
f 5/106/57 7/99/57 113/102/57 112/107/57
f 93/113/58 69/59/58 62/55/58 86/114/58
f 86/114/59 62/55/59 63/51/59 87/115/59
f 87/115/60 63/51/60 64/47/60 88/116/60
f 88/116/61 64/47/61 65/43/61 89/117/61
f 89/117/62 65/43/62 66/39/62 90/118/62
f 90/118/63 66/39/63 67/35/63 91/119/63
f 91/119/64 67/35/64 68/27/64 92/120/64
f 92/120/65 68/27/65 69/30/65 93/121/65
f 53/86/66 77/20/66 70/22/66 46/87/66
f 52/88/67 76/14/67 77/20/67 53/86/67
f 51/89/68 75/12/68 76/14/68 52/88/68
f 50/90/69 74/10/69 75/12/69 51/89/69
f 49/91/70 73/8/70 74/10/70 50/90/70
f 48/92/71 72/6/71 73/8/71 49/91/71
f 47/93/72 71/4/72 72/6/72 48/92/72
f 46/94/73 70/1/73 71/4/73 47/93/73
f 32/28/74 84/70/74 85/71/74 17/29/74
f 30/36/75 83/69/75 84/70/75 32/28/75
f 28/40/76 82/68/76 83/69/76 30/36/76
f 26/44/77 81/67/77 82/68/77 28/40/77
f 24/48/78 80/66/78 81/67/78 26/44/78
f 22/52/79 79/65/79 80/66/79 24/48/79
f 20/56/80 78/64/80 79/65/80 22/52/80
f 17/60/81 85/63/81 78/64/81 20/56/81
f 15/103/82 92/120/82 93/121/82 1/109/82
f 13/24/83 91/119/83 92/120/83 15/103/83
f 11/23/84 90/118/84 91/119/84 13/24/84
f 9/100/85 89/117/85 90/118/85 11/23/85
f 7/99/86 88/116/86 89/117/86 9/100/86
f 5/106/87 87/115/87 88/116/87 7/99/87
f 3/105/88 86/114/88 87/115/88 5/106/88
f 1/111/89 93/113/89 86/114/89 3/105/89
f 12/11/90 10/9/90 109/122/90 104/123/90
f 104/123/91 109/122/91 108/124/91 105/125/91
f 6/5/92 4/3/92 99/126/92 100/127/92
f 100/127/93 99/126/93 98/128/93 101/129/93
f 16/19/94 14/13/94 107/130/94 94/131/94
f 94/131/95 107/130/95 106/132/95 95/133/95
f 10/9/96 8/7/96 103/134/96 109/122/96
f 109/122/97 103/134/97 102/135/97 108/124/97
f 14/13/98 12/11/99 104/123/98 107/130/99
f 107/130/100 104/123/100 105/125/100 106/132/100
f 8/7/101 6/5/101 100/127/101 103/134/101
f 103/134/102 100/127/102 101/129/102 102/135/102
f 4/3/103 2/2/103 97/136/103 99/126/103
f 99/126/104 97/136/104 96/137/104 98/128/104
f 2/21/105 16/19/105 94/131/105 97/138/105
f 97/138/106 94/131/106 95/133/107 96/139/107
f 55/140/108 54/141/108 110/142/108 111/143/108
f 56/144/109 55/140/109 111/143/109 112/145/109
f 57/146/110 56/144/110 112/145/110 113/147/110
f 58/148/111 57/146/111 113/147/111 114/149/111
f 59/150/112 58/148/112 114/149/112 115/151/112
f 60/95/113 59/150/113 115/151/113 116/152/113
f 61/96/114 60/95/114 116/152/114 117/153/114
f 54/154/115 61/96/115 117/153/115 110/155/115
f 58/148/116 59/150/116 123/156/116 122/157/116
f 56/144/117 57/146/117 121/158/117 120/159/117
f 54/141/118 55/140/118 119/160/118 118/161/118
f 61/96/119 54/154/119 118/162/119 125/97/119
f 59/150/120 60/95/120 124/98/120 123/156/120
f 57/146/121 58/148/121 122/157/121 121/158/121
f 55/140/122 56/144/122 120/159/122 119/160/122
f 124/98/123 125/97/123 118/162/123 126/163/123
f 118/161/124 119/160/124 120/159/124 126/163/124
f 122/157/125 123/156/125 124/98/125 126/163/125
f 121/158/126 122/157/126 126/163/126 120/159/126
