# Blender 4.5.2 LTS
# www.blender.org
mtllib melon.mtl
o melon
v -0.122517 0.136132 -0.009683
v 0.000521 0.179527 0.018190
v -0.100702 0.135953 0.070496
v -0.103459 0.098282 0.086186
v -0.048401 0.173064 0.070552
v -0.003243 0.106948 0.108411
v -0.038352 0.147859 -0.103045
v -0.108802 0.104670 -0.079642
v -0.118446 0.115911 -0.055985
v -0.077514 0.033015 -0.071558
v -0.013942 0.028247 -0.074032
v 0.005371 0.033373 -0.060192
v -0.030453 0.186270 -0.029963
v -0.107920 0.149172 -0.042585
v -0.120404 0.062092 -0.017822
v -0.095555 0.030994 -0.036312
v 0.024329 0.034481 -0.017301
v 0.026706 0.157069 0.009047
v -0.088011 0.164927 0.050925
v -0.128397 0.108285 0.015967
v -0.112961 0.068537 0.060039
v -0.046039 0.028234 0.074875
v -0.072278 0.112688 0.110825
v 0.002317 0.051814 0.088436
v -0.013751 0.156044 0.088486
v -0.058581 0.133583 0.107187
v -0.060806 0.050882 -0.101214
v -0.090528 0.128826 -0.091688
v -0.025699 0.074040 0.114661
v -0.039867 0.106788 0.115061
v -0.038629 0.106843 0.112208
v -0.027409 0.167777 -0.078953
v -0.102292 0.164743 -0.006677
v 0.041614 0.065560 -0.025072
v -0.126983 0.081444 0.013977
v -0.091766 0.116964 0.095438
v 0.010734 0.137236 0.086609
v -0.038787 0.107053 0.118867
v -0.041031 0.031271 -0.085779
v -0.060674 0.071520 -0.112075
v -0.003610 0.109330 -0.110056
v -0.027247 0.128820 -0.112003
v -0.098100 0.078072 -0.090060
v -0.102747 0.055340 -0.066725
v 0.006695 0.051577 -0.083382
v 0.037028 0.092387 -0.063057
v 0.011517 0.150227 -0.073447
v -0.075613 0.179948 -0.025323
v 0.003556 0.018735 -0.018155
v 0.043334 0.124913 -0.023848
v -0.106318 0.154361 0.031082
v -0.121298 0.094543 0.050858
v -0.003564 0.027345 0.059488
v 0.041521 0.083138 0.046649
v 0.040763 0.124662 0.041273
v -0.050549 0.189206 0.012894
v -0.036451 0.010074 0.030404
v -0.013466 0.036315 0.081850
v 0.026917 0.058812 0.063000
v -0.002771 0.164447 0.069780
v -0.087394 0.092159 0.102572
v -0.070174 0.073853 0.109131
v 0.025989 0.121588 0.077545
v -0.081550 0.155627 -0.075649
v -0.042430 0.083493 0.116890
v -0.041253 0.127189 0.111986
v -0.042907 0.102729 0.112738
v -0.042044 0.105876 0.112395
v -0.039529 0.108417 0.117989
v -0.075871 0.096087 -0.110346
v -0.027880 0.079594 -0.115199
v -0.115704 0.079545 -0.061790
v -0.061799 0.016334 -0.047202
v 0.023474 0.060987 -0.068746
v -0.050396 0.174860 -0.064545
v -0.123865 0.079584 -0.032836
v -0.061131 0.008740 -0.005393
v -0.027180 0.012384 -0.038847
v 0.024086 0.157882 -0.026919
v 0.003580 0.018771 0.019984
v 0.047672 0.082687 0.010349
v 0.047123 0.110530 0.020852
v 0.023465 0.151040 0.050002
v -0.020025 0.187052 0.010339
v -0.113032 0.118011 0.063995
v -0.064483 0.018812 0.043494
v 0.025711 0.080840 0.081381
v -0.028422 0.177434 0.061210
v -0.080859 0.139132 0.091885
v -0.081167 0.048779 0.083084
v -0.050230 0.049093 0.100232
v -0.004102 0.072955 0.106120
v 0.002402 0.097744 0.106838
v -0.021219 0.105992 -0.115151
v -0.042316 0.109556 -0.116636
v -0.090933 0.106337 -0.099182
v -0.057361 0.155479 -0.091188
v -0.008276 0.134225 -0.104586
v -0.004841 0.153824 -0.086988
v -0.018068 0.101652 0.114832
v -0.041187 0.107589 0.118533
v -0.040446 0.105531 0.118979
v -0.072370 0.130739 -0.103496
v -0.004733 0.087844 -0.110104
v -0.105684 0.130586 -0.072046
v 0.028234 0.118749 -0.076590
v 0.036478 0.128349 -0.051020
v -0.127591 0.101707 -0.026457
v -0.017882 0.009058 -0.004063
v 0.048305 0.100444 -0.021066
v -0.001876 0.174188 -0.041755
v -0.123441 0.128799 0.016211
v -0.088870 0.023292 0.009638
v -0.092405 0.036890 0.046883
v -0.113872 0.050654 0.019560
v 0.033166 0.048237 0.028323
v -0.067466 0.178664 0.045250
v -0.098524 0.071570 0.084972
v -0.064843 0.156726 0.086054
v -0.043750 0.084960 -0.116394
v -0.011914 0.058419 -0.104008
v -0.037028 0.053532 -0.106742
v -0.078668 0.056205 -0.096015
v -0.020173 0.133989 0.107371
v -0.062205 0.081982 0.114536
v -0.061921 0.097010 0.115235
v -0.038703 0.150717 0.099094
v -0.042287 0.113390 0.112874
v -0.037082 0.102896 0.112610
v -0.039670 0.100583 0.112709
v 0.011213 0.126316 -0.094540
v -0.058393 0.096198 -0.115360
v -0.052244 0.125001 -0.112349
v -0.086446 0.177054 0.007547
v 0.017353 0.093740 -0.095567
v -0.034596 0.061637 0.110799
vn -0.1897 0.3085 -0.9321
vn -0.4472 -0.0114 -0.8944
vn -0.4081 0.4141 -0.8136
vn -0.6387 0.1125 -0.7612
vn -0.0468 0.1137 -0.9924
vn -0.2120 0.0484 -0.9761
vn -0.2666 -0.2902 -0.9191
vn 0.0493 -0.5344 -0.8438
vn 0.1358 -0.1964 -0.9711
vn 0.3831 -0.4785 -0.7901
vn 0.4326 -0.1565 -0.8879
vn 0.1241 0.3363 -0.9336
vn 0.3807 0.4419 -0.8123
vn 0.4392 0.1228 -0.8900
vn 0.1786 0.0654 -0.9817
vn -0.0130 0.6132 -0.7898
vn -0.7539 0.5941 -0.2806
vn -0.3873 0.9001 -0.1995
vn -0.5085 0.7035 -0.4966
vn -0.9248 0.1952 -0.3266
vn -0.7731 0.4163 -0.4786
vn -0.7613 -0.5023 -0.4100
vn -0.9019 -0.2221 -0.3705
vn -0.7127 -0.2425 -0.6582
vn -0.9541 -0.2301 -0.1918
vn -0.9888 0.0349 -0.1452
vn 0.5908 -0.7245 -0.3551
vn 0.6171 -0.5300 -0.5816
vn 0.7908 -0.4318 -0.4339
vn 0.3126 -0.8159 -0.4865
vn 0.9179 -0.3602 -0.1666
vn 0.9171 -0.0999 -0.3860
vn 0.7236 -0.1024 -0.6826
vn 0.8873 0.3527 -0.2971
vn 0.9914 0.0167 -0.1296
vn 0.4221 0.6874 -0.5910
vn 0.4513 0.8571 -0.2483
vn 0.6528 0.6208 -0.4342
vn 0.7344 0.6619 -0.1501
vn 0.1042 0.9763 -0.1896
vn 0.1437 0.8457 -0.5139
vn -0.1651 0.9007 -0.4018
vn -0.2611 0.7102 -0.6538
vn -0.9199 0.3886 -0.0528
vn -0.7034 0.7086 -0.0554
vn -0.9306 0.3384 0.1394
vn -0.9736 -0.2125 0.0834
vn -0.9894 0.1071 0.0977
vn -0.8957 -0.4338 -0.0981
vn -0.8260 -0.5501 0.1228
vn -0.6547 -0.7323 -0.1876
vn 0.1353 -0.9598 -0.2458
vn -0.2469 -0.9688 -0.0196
vn -0.2413 -0.9277 -0.2849
vn 0.4835 -0.8647 -0.1362
vn 0.2078 -0.9780 -0.0167
vn 0.7426 -0.6593 -0.1182
vn 0.9824 0.1530 0.1070
vn 0.9375 0.3327 -0.1023
vn 0.4806 0.8711 0.1011
vn -0.7743 0.5928 0.2217
vn -0.5057 0.8604 0.0629
vn -0.8753 0.2673 0.4031
vn -0.8434 -0.3839 0.3759
vn -0.9487 -0.0285 0.3150
vn 0.4915 -0.8567 0.1567
vn 0.8198 -0.5460 0.1725
vn 0.4169 -0.8267 0.3779
vn 0.7838 0.6193 0.0455
vn 0.9244 0.2900 0.2477
vn -0.1173 0.9904 0.0727
vn -0.5823 0.7277 0.3624
vn -0.3117 0.9029 0.2960
vn -0.1244 0.8657 0.4849
vn -0.7430 0.4824 0.4639
vn -0.5404 0.5285 0.6547
vn -0.3508 0.7079 0.6131
vn -0.8114 0.0100 0.5845
vn -0.6741 0.2729 0.6864
vn -0.7151 -0.3660 0.5956
vn -0.5067 -0.6568 0.5584
vn -0.6132 -0.7218 0.3210
vn -0.3268 -0.8924 0.3113
vn 0.7778 -0.4848 0.4000
vn 0.9444 -0.1358 0.2993
vn 0.8078 -0.1704 0.5642
vn 0.7425 0.6017 0.2945
vn 0.8194 0.2334 0.5236
vn 0.4699 0.7677 0.4357
vn 0.6240 0.4517 0.6377
vn -0.3909 0.2056 0.8972
vn -0.2484 0.4555 0.8549
vn -0.4154 -0.3722 0.8300
vn -0.6110 -0.0857 0.7870
vn -0.1627 -0.6676 0.7265
vn -0.1053 -0.8565 0.5054
vn 0.2629 -0.7691 0.5826
vn 0.0608 -0.5099 0.8581
vn 0.4718 -0.3281 0.8184
vn 0.5284 -0.5653 0.6334
vn 0.5716 0.0112 0.8205
vn 0.4662 0.2139 0.8584
vn 0.3072 0.6900 0.6554
vn 0.2692 0.4150 0.8691
vn -0.0084 0.6566 0.7542
vn 0.1358 0.9159 0.3777
vn -0.0201 -0.8102 -0.5858
vn -0.2610 -0.5966 -0.7589
vn -0.4515 -0.7583 -0.4702
vn -0.5196 -0.4854 -0.7032
vn -0.8344 0.0709 -0.5466
vn -0.6231 0.4011 -0.6715
vn 0.8353 0.2421 -0.4936
vn 0.6570 0.3359 -0.6749
vn 0.1961 0.0763 0.9776
vn 0.1977 -0.2598 0.9452
vn -0.0236 -0.0649 0.9976
vn -0.2629 -0.1895 0.9460
vn -0.1985 0.0496 0.9788
vn -0.0123 0.2975 0.9546
vn 0.1087 0.2623 0.9588
vn -0.2343 -0.0848 0.9684
vn -0.0026 -0.0935 0.9956
vn 0.0259 0.0158 0.9995
vn 0.7705 -0.4406 -0.4606
vn -0.1899 -0.4510 0.8721
vn -0.6626 0.5459 0.5128
vn -0.1295 0.4107 0.9025
vn 0.3143 0.9288 -0.1964
vn 0.7136 0.2011 0.6710
vn 0.2857 0.9555 0.0739
vn -0.5794 -0.8104 0.0863
vn 0.9809 -0.1847 0.0606
vn 0.2180 0.9748 0.0470
vn 0.0303 -0.9733 0.2276
vn -0.0323 -0.1255 -0.9916
vt 0.765708 0.381962
vt 0.815175 0.454724
vt 0.751091 0.430954
vt 0.795402 0.490057
vt 0.806573 0.398666
vt 0.827078 0.420690
vt 0.946309 0.579134
vt 0.899686 0.537646
vt 0.932890 0.527916
vt 0.981637 0.632122
vt 0.990065 0.588087
vt 0.386802 0.076647
vt 0.430166 0.037520
vt 0.456316 0.088445
vt 0.629087 0.245738
vt 0.581712 0.258830
vt 0.567051 0.200320
vt 0.603763 0.192333
vt 0.705566 0.372894
vt 0.734859 0.354300
vt 0.771360 0.351959
vt 0.778762 0.359376
vt 0.660137 0.552545
vt 0.579065 0.516870
vt 0.676139 0.470343
vt 0.725106 0.584857
vt 0.721923 0.529680
vt 0.832585 0.657892
vt 0.786848 0.622379
vt 0.846688 0.591038
vt 0.741879 0.662279
vt 0.706375 0.640677
vt 0.302743 0.141723
vt 0.362070 0.128936
vt 0.363193 0.178721
vt 0.304476 0.091331
vt 0.313573 0.250133
vt 0.406969 0.231600
vt 0.445804 0.156980
vt 0.443259 0.297510
vt 0.354367 0.301539
vt 0.562707 0.315054
vt 0.502463 0.395786
vt 0.512388 0.318451
vt 0.444461 0.373491
vt 0.525398 0.453975
vt 0.589610 0.369052
vt 0.604482 0.432122
vt 0.679829 0.412091
vt 0.638270 0.618914
vt 0.594247 0.580950
vt 0.615731 0.661568
vt 0.677157 0.718082
vt 0.642837 0.693118
vt 0.745030 0.706576
vt 0.712430 0.763603
vt 0.818771 0.731585
vt 0.917710 0.796924
vt 0.837751 0.826771
vt 0.887837 0.762840
vt 0.230210 0.181154
vt 0.180522 0.168260
vt 0.216944 0.106808
vt 0.153376 0.128572
vt 0.260796 0.217864
vt 0.315080 0.366561
vt 0.394886 0.329882
vt 0.423752 0.469391
vt 0.558184 0.644737
vt 0.550705 0.571920
vt 0.558953 0.736926
vt 0.638669 0.804473
vt 0.611468 0.749748
vt 0.180226 0.231309
vt 0.225684 0.293405
vt 0.130562 0.278299
vt 0.392484 0.418980
vt 0.308796 0.416996
vt 0.497847 0.532480
vt 0.504746 0.641664
vt 0.481715 0.600376
vt 0.417999 0.617988
vt 0.516120 0.713654
vt 0.451724 0.724674
vt 0.424373 0.679628
vt 0.557046 0.816323
vt 0.480291 0.771752
vt 0.599713 0.852553
vt 0.649600 0.889156
vt 0.709434 0.839553
vt 0.753309 0.883593
vt 0.187309 0.349158
vt 0.244962 0.365144
vt 0.177206 0.406777
vt 0.339488 0.467790
vt 0.255670 0.475477
vt 0.348079 0.535007
vt 0.279823 0.530112
vt 0.424604 0.794145
vt 0.390535 0.744344
vt 0.531404 0.797821
vt 0.581028 0.922769
vt 0.544750 0.876837
vt 0.641021 0.957534
vt 0.713011 0.940541
vt 0.029678 0.343613
vt 0.093045 0.325919
vt 0.030723 0.385238
vt 0.054712 0.279005
vt 0.091935 0.412756
vt 0.116368 0.365901
vt 0.189725 0.446950
vt 0.121442 0.449741
vt 0.203631 0.504082
vt 0.198590 0.562586
vt 0.317504 0.578738
vt 0.254911 0.602049
vt 0.312315 0.632639
vt 0.399886 0.567451
vt 0.366848 0.699100
vt 0.063987 0.627160
vt 0.121231 0.587378
vt 0.104544 0.636530
vt 0.319729 0.035374
vt 0.369031 0.026746
vt 0.944766 0.705757
vt 0.939444 0.635834
vt 0.885453 0.694064
vt 0.899620 0.625054
vt 0.778071 0.551380
vt 0.746312 0.480997
vt 0.637542 0.375301
vt 0.635513 0.306805
vt 0.470383 0.255209
vt 0.524295 0.253636
vt 0.192410 0.600961
vt 0.093479 0.472730
vt 0.056717 0.468484
vt 0.043918 0.416541
vt 0.019891 0.433814
vt 0.558094 0.987455
vt 0.557110 0.944315
vt 0.597888 0.983048
vt 0.526578 0.946897
vt 0.397782 0.814646
vt 0.358485 0.761450
vt 0.249464 0.643866
vt 0.026455 0.477307
vt 0.012357 0.459716
vt 0.014704 0.474718
vt 0.369795 0.817596
vt 0.356235 0.799205
vt 0.330577 0.838618
vt 0.208301 0.951589
vt 0.246626 0.827742
vt 0.158598 0.832367
vt 0.106387 0.972508
vt 0.083652 0.848641
vt 0.067799 0.901873
vt 0.349267 0.970179
vt 0.414346 0.921818
vt 0.440425 0.848686
vt 0.070433 0.979166
vt 0.480635 0.066864
vt 0.478050 0.103845
vt 0.290076 0.047726
vt 0.772269 0.802884
vt 0.295689 0.320780
vt 0.462564 0.490338
vt 0.791932 0.911079
vt 0.110989 0.199107
vt 0.472281 0.817883
vt 0.053495 0.582739
vt 0.076943 0.545426
vt 0.058472 0.541992
vt 0.027575 0.599137
vt 0.029004 0.578191
vt 0.073381 0.649456
vt 0.140494 0.610742
vt 0.051653 0.772747
vt 0.066421 0.741946
vt 0.092653 0.754468
vt 0.794202 0.569485
vt 0.844437 0.543417
vt 0.505756 0.202008
vt 0.581852 0.989643
vt 0.522661 0.907452
vt 0.015893 0.478105
vt 0.511916 0.987594
vt 0.353288 0.813046
vt 0.351387 0.811119
vt 0.203747 0.643578
vt 0.222069 0.647302
vt 0.185903 0.642442
vt 0.083908 0.783801
vt 0.036226 0.848438
vt 0.409696 0.979253
s 1
usemtl lambert2SG
f 133/1/1 70/2/2 103/3/3
f 96/4/4 103/3/3 70/2/2
f 70/2/2 95/5/5 132/6/6
f 40/7/7 70/8/2 132/9/6
f 122/10/8 40/7/7 71/11/9
f 121/12/10 71/13/9 104/14/11
f 42/15/12 98/16/13 41/17/14
f 41/17/14 94/18/15 42/15/12
f 7/19/16 42/20/12 133/1/1
f 42/21/12 95/22/5 133/1/1
f 14/23/17 48/24/18 64/25/19
f 9/26/20 14/23/17 105/27/21
f 44/28/22 72/29/23 43/30/24
f 72/29/23 76/31/25 108/32/26
f 12/33/27 45/34/28 74/35/29
f 45/34/28 12/33/27 11/36/30
f 34/37/31 74/35/29 46/38/32
f 46/38/32 74/35/29 135/39/33
f 46/38/32 107/40/34 110/41/35
f 99/42/36 111/43/37 47/44/38
f 107/40/34 47/44/38 79/45/39
f 13/46/40 32/47/41 75/48/42
f 111/43/37 32/47/41 13/46/40
f 32/47/41 111/43/37 99/42/36
f 75/48/42 97/49/43 64/25/19
f 1/50/44 33/51/45 14/23/17
f 112/52/46 1/50/44 108/32/26
f 1/50/44 14/23/17 9/26/20
f 108/32/26 35/53/47 20/54/48
f 76/31/25 15/55/49 35/53/47
f 115/56/50 15/55/49 16/57/51
f 78/58/52 77/59/53 73/60/54
f 12/33/27 49/61/55 11/36/30
f 49/61/55 109/62/56 78/63/52
f 77/64/53 78/63/52 109/62/56
f 17/65/57 49/61/55 12/33/27
f 110/41/35 34/37/31 46/38/32
f 82/66/58 110/41/35 50/67/59
f 111/43/37 2/68/60 79/45/39
f 33/51/45 51/69/61 134/70/62
f 51/69/61 112/52/46 85/71/63
f 20/54/48 85/71/63 112/52/46
f 1/50/44 112/52/46 51/69/61
f 15/55/49 115/56/50 35/53/47
f 35/53/47 115/56/50 21/72/64
f 35/53/47 21/72/64 52/73/65
f 109/62/56 49/61/55 80/74/66
f 116/75/67 53/76/68 80/74/66
f 17/65/57 80/74/66 49/61/55
f 18/77/69 55/78/70 50/67/59
f 55/78/70 82/66/58 50/67/59
f 48/24/18 134/70/62 56/79/71
f 134/70/62 19/80/72 117/81/73
f 5/82/74 56/79/71 117/81/73
f 51/69/61 3/83/75 19/80/72
f 19/80/72 89/84/76 119/85/77
f 4/86/78 85/71/63 52/73/65
f 36/87/79 3/83/75 85/71/63
f 21/72/64 118/88/80 4/86/78
f 90/89/81 114/90/82 86/91/83
f 90/89/81 118/88/80 21/72/64
f 115/56/50 114/90/82 21/72/64
f 53/76/68 116/75/67 59/92/84
f 54/93/85 87/94/86 59/92/84
f 55/78/70 83/95/87 63/96/88
f 60/97/89 37/98/90 83/95/87
f 63/96/88 83/95/87 37/98/90
f 119/85/77 5/82/74 117/81/73
f 3/83/75 36/87/79 89/84/76
f 23/99/91 89/84/76 36/87/79
f 23/99/91 26/100/92 89/84/76
f 85/71/63 4/101/78 36/87/79
f 118/88/80 62/102/93 61/103/94
f 91/104/95 90/89/81 22/105/96
f 91/106/95 58/107/97 136/108/98
f 22/109/96 58/107/97 91/106/95
f 87/94/86 92/110/99 24/111/100
f 136/108/98 24/111/100 92/110/99
f 63/112/88 93/113/101 87/94/86
f 37/98/90 93/114/101 63/96/88
f 37/98/90 6/115/102 93/114/101
f 25/116/103 124/117/104 37/98/90
f 124/117/104 6/115/102 37/98/90
f 5/82/74 127/118/105 88/119/106
f 127/118/105 124/117/104 25/116/103
f 26/100/92 119/85/77 89/84/76
f 127/120/105 5/82/74 119/85/77
f 71/121/9 95/122/5 94/123/15
f 135/39/33 121/12/10 104/14/11
f 74/35/29 45/34/28 135/39/33
f 121/12/10 11/36/30 39/124/107
f 121/12/10 39/124/107 122/125/8
f 39/126/107 27/127/108 122/10/8
f 27/127/108 39/126/107 10/128/109
f 123/129/110 44/28/22 43/30/24
f 123/129/110 43/30/24 70/8/2
f 8/130/111 28/131/112 96/4/4
f 28/131/112 8/130/111 105/27/21
f 103/3/3 96/4/4 28/131/112
f 64/25/19 28/131/112 105/27/21
f 64/25/19 103/3/3 28/131/112
f 103/3/3 97/49/43 7/19/16
f 103/3/3 64/25/19 97/49/43
f 97/49/43 75/48/42 32/132/41
f 32/47/41 99/42/36 7/133/16
f 106/134/113 131/135/114 47/44/38
f 99/42/36 47/44/38 131/135/114
f 99/42/36 131/135/114 98/16/13
f 131/135/114 41/17/14 98/16/13
f 124/117/104 100/136/115 6/115/102
f 6/137/102 100/138/115 93/113/101
f 93/113/101 29/139/116 92/110/99
f 100/138/115 65/140/117 29/139/116
f 65/141/117 125/142/118 136/143/98
f 91/104/95 136/143/98 62/102/93
f 125/142/118 65/141/117 126/144/119
f 125/142/118 61/103/94 62/102/93
f 23/99/91 126/145/119 66/146/120
f 66/146/120 127/120/105 26/100/92
f 124/117/104 66/147/120 100/136/115
f 100/138/115 31/148/121 65/140/117
f 67/149/122 65/140/117 130/150/123
f 126/145/119 67/151/122 128/152/124
f 129/153/125 102/154/126 130/155/123
f 67/156/122 102/154/126 101/157/127
f 101/157/127 68/158/128 67/156/122
f 68/158/128 101/157/127 30/159/129
f 38/160/130 129/153/125 30/161/129
f 30/161/129 129/153/125 31/162/121
f 30/159/129 101/157/127 69/163/131
f 133/1/1 95/5/5 70/2/2
f 40/7/7 123/129/110 70/8/2
f 123/129/110 40/7/7 27/127/108
f 122/10/8 27/127/108 40/7/7
f 121/12/10 122/125/8 71/13/9
f 94/164/15 41/165/14 104/14/11
f 41/165/14 135/39/33 104/14/11
f 98/16/13 42/15/12 7/133/16
f 133/1/1 103/3/3 7/19/16
f 14/23/17 64/25/19 105/27/21
f 9/26/20 105/27/21 8/130/111
f 9/26/20 72/29/23 108/32/26
f 9/26/20 8/130/111 72/29/23
f 15/55/49 72/29/23 44/28/22
f 72/29/23 8/130/111 43/30/24
f 15/55/49 44/28/22 16/57/51
f 123/129/110 10/128/109 44/28/22
f 10/128/109 16/57/51 44/28/22
f 73/60/54 10/128/109 39/126/107
f 39/126/107 78/58/52 73/60/54
f 16/57/51 10/128/109 73/60/54
f 78/63/52 39/166/107 11/36/30
f 17/65/57 12/33/27 74/35/29
f 46/38/32 106/134/113 107/40/34
f 79/45/39 47/44/38 111/43/37
f 107/40/34 106/134/113 47/44/38
f 48/24/18 75/48/42 64/25/19
f 33/51/45 134/70/62 48/24/18
f 48/24/18 14/23/17 33/51/45
f 108/32/26 1/50/44 9/26/20
f 20/54/48 112/52/46 108/32/26
f 76/31/25 72/29/23 15/55/49
f 108/32/26 76/31/25 35/53/47
f 113/167/132 115/56/50 16/57/51
f 113/167/132 16/57/51 77/59/53
f 73/60/54 77/59/53 16/57/51
f 11/36/30 49/61/55 78/63/52
f 17/65/57 74/35/29 34/37/31
f 34/37/31 110/41/35 81/168/133
f 107/40/34 79/45/39 50/67/59
f 110/41/35 107/40/34 50/67/59
f 79/45/39 2/68/60 18/77/69
f 56/79/71 84/169/134 13/46/40
f 13/46/40 48/24/18 56/79/71
f 13/46/40 75/48/42 48/24/18
f 33/51/45 1/50/44 51/69/61
f 134/70/62 51/69/61 19/80/72
f 20/54/48 52/73/65 85/71/63
f 35/53/47 52/73/65 20/54/48
f 115/56/50 113/167/132 114/90/82
f 77/59/53 57/170/135 86/91/83
f 86/91/83 114/90/82 113/167/132
f 86/91/83 113/167/132 77/59/53
f 80/74/66 53/76/68 57/171/135
f 57/171/135 77/64/53 109/62/56
f 109/62/56 80/74/66 57/171/135
f 17/65/57 34/37/31 116/75/67
f 17/65/57 116/75/67 80/74/66
f 81/168/133 110/41/35 82/66/58
f 82/66/58 54/93/85 81/168/133
f 116/75/67 81/168/133 54/93/85
f 116/75/67 34/37/31 81/168/133
f 79/45/39 18/77/69 50/67/59
f 13/46/40 84/169/134 2/68/60 111/43/37
f 2/68/60 83/95/87 18/77/69
f 18/77/69 83/95/87 55/78/70
f 88/119/106 2/68/60 84/169/134
f 56/79/71 88/119/106 84/169/134
f 134/70/62 117/81/73 56/79/71
f 5/82/74 88/119/106 56/79/71
f 51/69/61 85/71/63 3/83/75
f 19/80/72 3/83/75 89/84/76
f 21/72/64 4/86/78 52/73/65
f 90/89/81 21/72/64 114/90/82
f 22/105/96 86/91/83 57/170/135
f 22/105/96 90/89/81 86/91/83
f 22/109/96 53/76/68 58/107/97
f 53/76/68 22/109/96 57/171/135
f 59/92/84 87/94/86 24/111/100
f 24/111/100 53/76/68 59/92/84
f 53/76/68 24/111/100 58/107/97
f 59/92/84 116/75/67 54/93/85
f 87/94/86 55/78/70 63/96/88
f 54/93/85 82/66/58 55/78/70
f 55/78/70 87/94/86 54/93/85
f 83/95/87 2/68/60 60/97/89
f 88/119/106 25/116/103 60/97/89
f 88/119/106 60/97/89 2/68/60
f 117/81/73 19/80/72 119/85/77
f 61/172/94 23/99/91 36/87/79
f 61/172/94 36/87/79 4/101/78
f 4/86/78 118/88/80 61/103/94
f 62/102/93 90/89/81 91/104/95
f 62/102/93 118/88/80 90/89/81
f 136/108/98 58/107/97 24/111/100
f 87/94/86 93/113/101 92/110/99
f 60/97/89 25/116/103 37/98/90
f 88/119/106 127/118/105 25/116/103
f 119/85/77 26/100/92 127/120/105
f 95/122/5 120/173/136 132/174/6
f 40/175/7 132/174/6 120/173/136
f 71/176/9 40/177/7 120/173/136
f 94/123/15 104/178/11 71/121/9
f 71/121/9 120/173/136 95/122/5
f 94/123/15 95/122/5 42/179/12
f 38/180/130 69/181/131 101/182/127
f 135/39/33 45/34/28 121/12/10
f 11/36/30 121/12/10 45/34/28
f 123/129/110 27/127/108 10/128/109
f 8/183/111 96/184/4 43/30/24
f 70/8/2 43/30/24 96/184/4
f 7/19/16 97/49/43 32/132/41
f 7/133/16 99/42/36 98/16/13
f 131/135/114 106/134/113 135/185/33
f 106/134/113 46/38/32 135/185/33
f 131/135/114 135/185/33 41/17/14
f 93/113/101 100/138/115 29/139/116
f 29/139/116 136/108/98 92/110/99
f 29/186/116 65/141/117 136/143/98
f 62/102/93 136/143/98 125/142/118
f 125/142/118 23/187/91 61/103/94
f 125/142/118 126/144/119 23/187/91
f 23/99/91 66/146/120 26/100/92
f 127/118/105 66/147/120 124/117/104
f 129/188/125 65/140/117 31/148/121
f 65/140/117 129/188/125 130/150/123
f 126/144/119 65/141/117 67/189/122
f 67/151/122 68/190/128 128/152/124
f 126/145/119 128/152/124 66/146/120
f 68/190/128 31/191/121 128/152/124
f 128/192/124 100/136/115 66/193/120
f 100/136/115 128/192/124 31/194/121
f 38/180/130 101/182/127 102/195/126
f 67/156/122 130/155/123 102/154/126
f 68/158/128 30/159/129 31/196/121
f 129/153/125 38/160/130 102/154/126
f 69/197/131 38/160/130 30/161/129
