# Blender 4.5.2 LTS
# www.blender.org
mtllib orange.mtl
o orange
v -0.030005 0.132178 0.000664
v -0.029998 0.132216 0.000674
v -0.030430 0.132279 0.000409
v -0.029457 0.132200 -0.000376
v -0.092834 0.062755 -0.001344
v -0.056442 0.126820 -0.008643
v -0.083687 0.092348 -0.025205
v -0.054708 0.015606 -0.022345
v -0.058847 0.061151 -0.055302
v -0.030321 0.016311 -0.033747
v -0.002423 0.083396 -0.055107
v 0.012424 0.116134 -0.010659
v -0.010537 0.130649 -0.004120
v 0.013816 0.024084 -0.001517
v 0.012240 0.034954 0.031161
v -0.021451 0.131939 0.007726
v -0.012830 0.126674 0.023843
v -0.034377 0.054757 0.061456
v -0.049342 0.036720 0.050371
v -0.048123 0.128018 0.018585
v -0.034417 0.131358 0.016739
v -0.084184 0.040606 0.015098
v -0.066541 0.020589 0.016550
v -0.031557 0.131267 -0.003656
v -0.029124 0.131716 -0.000188
v -0.030458 0.132204 -0.000330
v -0.029333 0.132254 0.000267
v -0.030774 0.131654 0.000202
v -0.076845 0.112527 -0.001770
v -0.091041 0.071245 -0.015717
v -0.075873 0.026482 0.003149
v -0.072136 0.115010 -0.015432
v -0.083505 0.046402 -0.024497
v -0.056711 0.012999 -0.006876
v -0.083690 0.065515 -0.032787
v -0.073580 0.026345 -0.014024
v -0.074684 0.073633 -0.045181
v -0.070235 0.038799 -0.038228
v -0.064084 0.097601 -0.045612
v -0.064831 0.110302 -0.034173
v -0.046573 0.024817 -0.041158
v -0.035273 0.098577 -0.056034
v -0.024805 0.033218 -0.051676
v -0.041692 0.055425 -0.060340
v -0.050627 0.039338 -0.051736
v -0.050798 0.083880 -0.058359
v -0.016872 0.126977 -0.025290
v -0.032043 0.068726 -0.062961
v -0.040997 0.111919 -0.046523
v -0.015608 0.053843 -0.059289
v -0.019901 0.077317 -0.062315
v -0.029457 0.010297 -0.020739
v -0.011633 0.098310 -0.053528
v -0.014386 0.009070 -0.005241
v 0.005098 0.063201 -0.052013
v -0.002326 0.038361 -0.047582
v 0.015421 0.052218 -0.040046
v -0.011762 0.112640 -0.043636
v 0.011674 0.101425 -0.036111
v -0.009933 0.016639 -0.028364
v 0.009374 0.029313 -0.028652
v 0.016641 0.081302 -0.041613
v 0.021056 0.071099 -0.037000
v 0.021354 0.041050 -0.022912
v 0.029078 0.078406 -0.020250
v 0.028188 0.055607 -0.019786
v 0.024196 0.097962 -0.016764
v 0.018817 0.031865 0.013311
v 0.032550 0.063350 -0.004343
v 0.026485 0.042325 -0.003649
v 0.022186 0.105123 0.005350
v 0.031572 0.084113 -0.003650
v -0.009394 0.129004 0.011109
v 0.026423 0.089467 0.021954
v -0.000251 0.013861 -0.004507
v 0.010095 0.110972 0.027081
v 0.012709 0.050313 0.042811
v 0.030142 0.075949 0.020129
v 0.006966 0.119792 0.014126
v -0.002444 0.018168 0.024466
v 0.014544 0.066847 0.044738
v 0.014461 0.090963 0.040293
v -0.009902 0.052431 0.057322
v -0.024074 0.122628 0.034585
v -0.006700 0.107852 0.045753
v -0.000372 0.072964 0.055608
v -0.032793 0.012320 0.025993
v -0.021862 0.019897 0.037929
v -0.015209 0.068289 0.061503
v -0.034619 0.117086 0.042603
v -0.025641 0.031978 0.050629
v -0.049580 0.078536 0.059335
v -0.061022 0.058390 0.054318
v -0.064141 0.082322 0.052007
v -0.052743 0.015917 0.023850
v -0.073118 0.042872 0.038019
v -0.050198 0.023831 0.038859
v -0.083205 0.086342 0.030112
v -0.084013 0.063992 0.032711
v -0.088215 0.094138 0.009596
v -0.046581 0.010107 0.011918
v -0.075226 0.108445 0.022228
v -0.042106 0.132167 0.002189
v -0.062596 0.123810 0.008974
v -0.039449 0.131110 -0.015336
v -0.031658 0.009262 0.001602
v -0.021085 0.009072 0.015070
v -0.043484 0.008820 -0.006973
v -0.031342 0.128723 0.000450
v -0.027164 0.131287 0.002809
v -0.031472 0.129174 -0.002260
v -0.031418 0.131264 0.003772
v -0.026630 0.131042 -0.002387
v -0.034001 0.131371 -0.000425
v -0.028488 0.009288 -0.001613
v -0.028222 0.129101 0.001479
v -0.088446 0.093943 -0.003950
v -0.086219 0.042708 -0.008289
v -0.052816 0.122373 -0.027816
v -0.036692 0.122792 -0.034248
v -0.000016 0.120644 -0.023758
v 0.028389 0.051147 0.016266
v -0.002785 0.035294 0.045535
v -0.011285 0.095656 0.055028
v -0.029755 0.080361 0.062179
v -0.039713 0.100474 0.054901
v -0.056983 0.116144 0.034291
v -0.065048 0.099994 0.043551
v -0.025655 0.131980 -0.013173
v -0.091593 0.065343 0.013390
vn -0.1320 0.7381 -0.6617
vn 0.7575 -0.2105 -0.6180
vn -0.3905 0.0866 0.9165
vn -0.9934 -0.1108 -0.0295
vn -0.4341 0.8909 -0.1336
vn -0.8421 0.3513 -0.4092
vn -0.3929 -0.8395 -0.3753
vn -0.4760 -0.1412 -0.8680
vn -0.0051 -0.8345 -0.5509
vn 0.4559 0.2072 -0.8656
vn 0.6711 0.7227 -0.1654
vn 0.3289 0.9417 -0.0703
vn 0.6917 -0.7215 -0.0330
vn 0.6767 -0.5547 0.4842
vn 0.0883 0.9921 0.0895
vn 0.2799 0.8727 0.4000
vn -0.0782 -0.2381 0.9681
vn -0.3069 -0.5077 0.8051
vn -0.2981 0.8989 0.3211
vn -0.0571 0.9585 0.2795
vn -0.8577 -0.4501 0.2486
vn -0.5840 -0.7636 0.2753
vn 0.1940 0.8977 0.3955
vn -0.7757 0.5972 0.2042
vn 0.5407 0.3451 0.7672
vn -0.6204 0.4711 -0.6270
vn 0.7676 0.6259 -0.1380
vn -0.7483 0.6631 -0.0160
vn -0.9684 0.0277 -0.2480
vn -0.7266 -0.6858 0.0409
vn -0.6734 0.6946 -0.2530
vn -0.8489 -0.3585 -0.3884
vn -0.4447 -0.8924 -0.0770
vn -0.8496 -0.0796 -0.5214
vn -0.6865 -0.6855 -0.2424
vn -0.6986 0.0528 -0.7136
vn -0.6313 -0.4810 -0.6084
vn -0.5414 0.4244 -0.7258
vn -0.5618 0.6210 -0.5466
vn -0.2713 -0.7143 -0.6451
vn -0.0773 0.4396 -0.8949
vn 0.0838 -0.5765 -0.8128
vn -0.1717 -0.2294 -0.9581
vn -0.3280 -0.4719 -0.8184
vn -0.3239 0.2159 -0.9211
vn 0.1966 0.8859 -0.4201
vn -0.0559 -0.0182 -0.9983
vn -0.1743 0.6450 -0.7440
vn 0.2288 -0.2504 -0.9407
vn 0.1604 0.1203 -0.9797
vn 0.0051 -0.9564 -0.2919
vn 0.2897 0.4444 -0.8477
vn 0.1982 -0.9774 -0.0736
vn 0.5397 -0.1082 -0.8349
vn 0.4370 -0.5016 -0.7466
vn 0.7199 -0.2866 -0.6321
vn 0.2803 0.6678 -0.6895
vn 0.6536 0.4946 -0.5728
vn 0.3247 -0.8281 -0.4571
vn 0.6168 -0.6470 -0.4483
vn 0.7268 0.1985 -0.6576
vn 0.8221 -0.0162 -0.5690
vn 0.8093 -0.4659 -0.3578
vn 0.9321 0.1295 -0.3382
vn 0.9225 -0.2109 -0.3234
vn 0.8532 0.4417 -0.2774
vn 0.7642 -0.6055 0.2220
vn 0.9931 -0.1037 -0.0542
vn 0.8972 -0.4376 -0.0601
vn 0.8327 0.5462 0.0906
vn 0.9733 0.2257 -0.0413
vn 0.3416 0.9256 0.1631
vn 0.8780 0.3241 0.3523
vn 0.4731 -0.8787 -0.0637
vn 0.6365 0.6324 0.4415
vn 0.6874 -0.2891 0.6662
vn 0.9399 0.0561 0.3367
vn 0.5913 0.7800 0.2047
vn 0.4408 -0.8147 0.3769
vn 0.7241 -0.0433 0.6884
vn 0.6980 0.3139 0.6436
vn 0.3250 -0.2889 0.9005
vn 0.0958 0.8261 0.5553
vn 0.3624 0.6034 0.7104
vn 0.4853 0.0562 0.8725
vn -0.0483 -0.9072 0.4180
vn 0.1332 -0.7899 0.5986
vn 0.2231 -0.0118 0.9747
vn -0.0791 0.7287 0.6803
vn 0.0627 -0.5857 0.8081
vn -0.2908 0.1284 0.9481
vn -0.4957 -0.1785 0.8499
vn -0.5609 0.1871 0.8064
vn -0.3591 -0.8491 0.3875
vn -0.6766 -0.4355 0.5938
vn -0.3256 -0.7203 0.6125
vn -0.8355 0.2471 0.4907
vn -0.8408 -0.0907 0.5338
vn -0.9211 0.3543 0.1617
vn -0.2413 -0.9571 0.1607
vn -0.7128 0.6045 0.3557
vn -0.1686 0.9855 0.0217
vn -0.5280 0.8367 0.1454
vn -0.1486 0.9567 -0.2503
vn 0.0527 -0.9976 -0.0438
vn 0.1415 -0.9684 0.2055
vn -0.1553 -0.9835 -0.0924
vn 0.2840 0.9461 -0.1557
vn -0.2300 0.9408 -0.2492
vn 0.2366 0.8315 0.5027
vn 0.1704 0.8664 -0.4694
vn -0.2574 0.9559 0.1414
vn 0.3510 0.9362 0.0166
vn -0.0035 -0.9998 0.0209
vn -0.4105 0.8707 -0.2708
vn -0.9300 0.3548 -0.0956
vn -0.8999 -0.4202 -0.1168
vn -0.3696 0.8159 -0.4447
vn -0.0761 0.8325 -0.5488
vn 0.4891 0.7832 -0.3838
vn 0.9181 -0.2793 0.2814
vn 0.4200 -0.5548 0.7181
vn 0.2834 0.3863 0.8777
vn 0.0013 0.1669 0.9860
vn -0.1520 0.4776 0.8653
vn -0.4193 0.7245 0.5471
vn -0.5515 0.4678 0.6906
vn 0.0533 0.9822 -0.1803
vn -0.9740 -0.0590 0.2187
vt 0.167011 0.795346
vt 0.109857 0.692301
vt 0.265924 0.660417
vt 0.163132 0.895901
vt 0.076692 0.781187
vt 0.510144 0.704748
vt 0.571379 0.685619
vt 0.573161 0.735142
vt 0.214783 0.247010
vt 0.261338 0.277592
vt 0.220423 0.288865
vt 0.101086 0.245148
vt 0.168220 0.300316
vt 0.089039 0.317393
vt 0.016200 0.281241
vt 0.629359 0.661943
vt 0.633799 0.703942
vt 0.432480 0.729368
vt 0.416749 0.650972
vt 0.505888 0.649102
vt 0.169036 0.348711
vt 0.558433 0.604516
vt 0.014069 0.340633
vt 0.212919 0.337942
vt 0.450544 0.595442
vt 0.477555 0.534886
vt 0.141748 0.392828
vt 0.066075 0.422548
vt 0.558157 0.500490
vt 0.646414 0.607796
vt 0.254056 0.315618
vt 0.247630 0.363948
vt 0.632283 0.492318
vt 0.617725 0.562627
vt 0.222875 0.401206
vt 0.220001 0.453368
vt 0.146474 0.470590
vt 0.689169 0.625709
vt 0.696047 0.661783
vt 0.593602 0.442448
vt 0.663715 0.436857
vt 0.702270 0.560312
vt 0.257539 0.533925
vt 0.285787 0.319010
vt 0.298798 0.356671
vt 0.730921 0.492294
vt 0.301173 0.413342
vt 0.292496 0.466484
vt 0.324857 0.516541
vt 0.743114 0.636497
vt 0.773494 0.558308
vt 0.731519 0.697633
vt 0.853844 0.553183
vt 0.804427 0.619152
vt 0.372077 0.426978
vt 0.399402 0.485731
vt 0.328058 0.309786
vt 0.826763 0.488295
vt 0.908788 0.519616
vt 0.434672 0.387605
vt 0.487381 0.436755
vt 0.773536 0.693864
vt 0.448738 0.505599
vt 0.383415 0.346133
vt 0.861222 0.622823
vt 0.823034 0.695528
vt 0.503095 0.367171
vt 0.545281 0.409576
vt 0.974831 0.602147
vt 0.965088 0.670190
vt 0.918372 0.615456
vt 0.885273 0.682132
vt 0.918445 0.749067
vt 0.438034 0.317655
vt 0.387043 0.279260
vt 0.493544 0.261688
vt 0.848586 0.735425
vt 0.778502 0.763977
vt 0.725650 0.744228
vt 0.416791 0.246499
vt 0.472208 0.199119
vt 0.532682 0.154345
vt 0.984095 0.763447
vt 0.867717 0.840438
vt 0.340279 0.276326
vt 0.340248 0.241875
vt 0.473657 0.101778
vt 0.390036 0.188354
vt 0.793232 0.837390
vt 0.729140 0.803825
vt 0.395471 0.135084
vt 0.797384 0.905264
vt 0.727099 0.855405
vt 0.417582 0.047207
vt 0.304289 0.278526
vt 0.287250 0.246848
vt 0.699317 0.775480
vt 0.326517 0.209115
vt 0.306932 0.177245
vt 0.304810 0.115517
vt 0.358827 0.055969
vt 0.745692 0.995923
vt 0.704937 0.940645
vt 0.791542 0.966434
vt 0.656147 0.812746
vt 0.280949 0.038738
vt 0.650088 0.995429
vt 0.598970 0.930479
vt 0.214473 0.066662
vt 0.260016 0.001948
vt 0.649797 0.773691
vt 0.662786 0.743722
vt 0.654698 0.867568
vt 0.569876 0.845447
vt 0.257977 0.234002
vt 0.242797 0.183865
vt 0.480446 0.865856
vt 0.222039 0.130357
vt 0.184745 0.190383
vt 0.134624 0.129981
vt 0.529940 0.778744
vt 0.112434 0.197585
vt 0.049488 0.147648
vt 0.114329 0.074130
vt 0.159472 0.258399
vt 0.444814 0.800636
vt 0.698526 0.714260
vt 0.701689 0.709317
vt 0.016000 0.217046
vt 0.606355 0.762979
vt 0.673177 0.699545
vt 0.286339 0.283739
vt 0.286202 0.287414
vt 0.282345 0.287127
vt 0.290519 0.285722
vt 0.288288 0.290837
vt 0.287623 0.287353
vt 0.285708 0.288642
vt 0.242079 0.767344
vt 0.332857 0.777998
vt 0.079683 0.484066
vt 0.193615 0.547231
vt 0.764118 0.436639
vt 0.382228 0.554707
vt 0.341238 0.367356
vt 0.543965 0.282933
vt 0.565080 0.353787
vt 0.837782 0.790092
vt 0.914473 0.881511
vt 0.862211 0.946456
vt 0.332899 0.004699
vt 0.527586 0.946943
vt 0.283748 0.291042
s 1
usemtl Skin
f 118/6/117 36/7/35 31/8/30
f 104/9/103 103/10/102 6/11/5
f 117/12/116 32/13/31 7/14/6
f 117/12/116 7/14/6 30/15/29
f 36/7/35 8/16/7 34/17/33
f 5/18/4 30/19/29 33/20/32
f 32/13/31 40/21/39 7/14/6
f 33/20/32 38/22/37 36/7/35
f 7/14/6 35/23/34 30/15/29
f 119/24/118 40/21/39 32/13/31
f 33/20/32 35/25/34 38/22/37
f 37/26/36 38/22/37 35/25/34
f 7/14/6 40/21/39 39/27/38
f 7/14/6 39/27/38 37/28/36
f 37/26/36 9/29/8 38/22/37
f 8/16/7 38/22/37 41/30/40
f 105/31/104 120/32/119 119/24/118
f 9/29/8 44/33/43 45/34/44
f 40/21/39 49/35/48 39/27/38
f 49/35/48 42/36/41 46/37/45
f 8/16/7 10/38/9 52/39/51
f 9/29/8 46/40/45 44/33/43
f 46/40/45 48/41/47 44/33/43
f 44/33/43 43/42/42 45/34/44
f 41/30/40 45/34/44 43/42/42
f 46/37/45 42/36/41 51/43/50
f 105/31/104 129/44/128 120/32/119
f 129/44/128 47/45/46 120/32/119
f 44/33/43 48/41/47 50/46/49
f 120/32/119 58/47/57 49/35/48
f 58/47/57 53/48/52 42/36/41
f 53/48/52 11/49/10 51/43/50
f 52/39/51 10/38/9 60/50/59
f 50/46/49 56/51/55 43/42/42
f 52/39/51 60/50/59 54/52/53
f 57/53/56 61/54/60 56/51/55
f 58/47/57 59/55/58 53/48/52
f 60/50/59 56/51/55 61/54/60
f 59/55/58 62/56/61 11/49/10
f 129/44/128 13/57/12 47/45/46
f 55/58/54 63/59/62 57/53/56
f 62/56/61 67/60/66 65/61/64
f 60/50/59 61/54/60 75/62/74
f 62/56/61 65/61/64 63/63/62
f 59/55/58 12/64/11 67/60/66
f 61/54/60 64/65/63 14/66/13
f 65/61/64 72/67/71 69/68/68
f 65/69/64 69/70/68 66/71/65
f 66/71/65 69/70/68 70/72/69
f 69/70/68 122/73/121 70/72/69
f 67/60/66 12/64/11 71/74/70
f 67/60/66 72/67/71 65/61/64
f 12/64/11 13/57/12 79/75/78
f 71/74/70 74/76/73 72/67/71
f 68/77/67 80/78/79 14/66/13
f 14/66/13 80/78/79 75/62/74
f 54/52/53 75/62/74 107/79/106
f 71/74/70 76/80/75 74/76/73
f 74/76/73 82/81/81 81/82/80
f 75/62/74 80/78/79 107/79/106
f 122/73/121 78/83/77 77/84/76
f 73/85/72 17/86/16 79/75/78
f 82/81/81 86/87/85 81/82/80
f 17/86/16 85/88/84 76/80/75
f 76/80/75 85/88/84 82/81/81
f 80/78/79 123/89/122 88/90/87
f 82/81/81 124/91/123 86/87/85
f 83/92/82 91/93/90 123/89/122
f 124/91/123 89/94/88 86/87/85
f 17/86/16 16/95/15 21/96/20
f 107/79/106 88/90/87 87/97/86
f 85/88/84 84/98/83 90/99/89
f 90/99/89 126/100/125 124/91/123
f 124/91/123 125/101/124 89/94/88
f 125/102/124 18/103/17 89/104/88
f 88/90/87 91/93/90 97/105/96
f 125/101/124 126/100/125 92/106/91
f 18/103/17 92/107/91 93/108/92
f 92/106/91 94/109/93 93/110/92
f 95/111/94 101/112/100 87/97/86
f 19/113/18 93/108/92 96/114/95
f 20/115/19 104/9/103 127/116/126
f 93/108/92 99/117/98 96/114/95
f 128/118/127 102/119/101 98/120/97
f 128/118/127 98/120/97 94/109/93
f 96/114/95 99/117/98 22/121/21
f 102/119/101 100/122/99 98/120/97
f 98/120/97 130/123/129 99/124/98
f 102/119/101 104/9/103 29/125/28
f 99/117/98 130/126/129 22/121/21
f 13/57/12 129/44/128 16/95/15
f 105/31/104 103/10/102 129/44/128
f 54/52/53 106/127/105 115/128/114
f 21/96/20 16/95/15 103/10/102
f 100/122/99 29/125/28 117/12/116
f 130/123/129 100/122/99 5/129/4
f 101/112/100 23/130/22 34/17/33
f 108/131/107 52/39/51 54/52/53
f 107/79/106 87/97/86 101/112/100
f 112/132/111 109/133/108 114/134/113
f 110/135/109 113/136/112 116/137/115
f 110/135/109 116/137/115 112/132/111
f 113/136/112 109/133/108 116/137/115
f 111/138/110 109/133/108 113/136/112
f 31/8/30 36/7/35 34/17/33
f 5/129/4 117/12/116 30/15/29
f 100/122/99 117/12/116 5/129/4
f 29/125/28 104/9/103 32/13/31
f 32/13/31 104/9/103 6/11/5
f 22/121/21 5/18/4 118/6/117
f 31/8/30 22/121/21 118/6/117
f 118/6/117 33/20/32 36/7/35
f 117/12/116 29/125/28 32/13/31
f 6/11/5 103/10/102 105/31/104
f 30/19/29 35/25/34 33/20/32
f 118/6/117 5/18/4 33/20/32
f 36/7/35 38/22/37 8/16/7
f 35/23/34 7/14/6 37/28/36
f 32/13/31 6/11/5 119/24/118
f 6/11/5 105/31/104 119/24/118
f 38/22/37 9/29/8 45/34/44
f 38/22/37 45/34/44 41/30/40
f 37/28/36 39/27/38 46/37/45
f 37/28/36 46/37/45 9/141/8
f 8/16/7 41/30/40 10/38/9
f 108/131/107 8/16/7 52/39/51
f 40/21/39 119/24/118 49/35/48
f 39/27/38 49/35/48 46/37/45
f 119/24/118 120/32/119 49/35/48
f 10/38/9 41/30/40 43/42/42
f 48/142/47 46/37/45 51/43/50
f 48/41/47 51/143/50 50/46/49
f 120/32/119 47/45/46 58/47/57
f 43/42/42 44/33/43 50/46/49
f 49/35/48 58/47/57 42/36/41
f 51/43/50 42/36/41 53/48/52
f 43/42/42 56/51/55 60/50/59
f 10/38/9 43/42/42 60/50/59
f 51/143/50 55/58/54 50/46/49
f 56/51/55 50/46/49 55/58/54
f 11/49/10 53/48/52 59/55/58
f 51/43/50 11/49/10 55/144/54
f 55/144/54 11/49/10 62/56/61
f 58/47/57 47/45/46 121/145/120
f 56/51/55 55/58/54 57/53/56
f 58/47/57 121/145/120 59/55/58
f 55/144/54 62/56/61 63/63/62
f 121/145/120 12/64/11 59/55/58
f 57/53/56 64/65/63 61/54/60
f 59/55/58 67/60/66 62/56/61
f 121/145/120 47/45/46 13/57/12
f 63/59/62 65/69/64 66/71/65
f 57/53/56 63/59/62 66/71/65
f 64/65/63 57/53/56 66/71/65
f 64/65/63 66/71/65 70/72/69
f 75/62/74 61/54/60 14/66/13
f 121/145/120 13/57/12 12/64/11
f 72/67/71 67/60/66 71/74/70
f 14/66/13 64/65/63 70/72/69
f 72/67/71 78/146/77 69/147/68
f 69/70/68 78/83/77 122/73/121
f 12/64/11 79/75/78 71/74/70
f 70/72/69 122/73/121 68/77/67
f 14/66/13 70/72/69 68/77/67
f 72/67/71 74/76/73 78/146/77
f 13/57/12 16/95/15 73/85/72
f 79/75/78 13/57/12 73/85/72
f 71/74/70 79/75/78 76/80/75
f 68/77/67 122/73/121 15/148/14
f 122/73/121 77/84/76 15/148/14
f 74/76/73 76/80/75 82/81/81
f 68/77/67 15/148/14 80/78/79
f 78/146/77 74/76/73 81/82/80
f 78/83/77 81/149/80 77/84/76
f 76/80/75 79/75/78 17/86/16
f 15/148/14 123/89/122 80/78/79
f 123/89/122 15/148/14 77/84/76
f 82/81/81 85/88/84 124/91/123
f 73/85/72 16/95/15 17/86/16
f 123/89/122 91/93/90 88/90/87
f 80/78/79 88/90/87 107/79/106
f 83/92/82 81/149/80 86/150/85
f 77/84/76 81/149/80 83/92/82
f 77/84/76 83/92/82 123/89/122
f 83/92/82 86/150/85 89/104/88
f 17/86/16 84/98/83 85/88/84
f 83/92/82 89/104/88 18/103/17
f 85/88/84 90/99/89 124/91/123
f 91/93/90 83/92/82 18/103/17
f 124/91/123 126/100/125 125/101/124
f 84/98/83 17/86/16 21/96/20
f 18/151/17 125/101/124 92/106/91
f 90/99/89 84/98/83 21/96/20
f 18/103/17 19/113/18 91/93/90
f 88/90/87 97/105/96 87/97/86
f 97/105/96 91/93/90 19/113/18
f 126/100/125 94/109/93 92/106/91
f 21/96/20 20/115/19 90/99/89
f 87/97/86 97/105/96 95/111/94
f 18/103/17 93/108/92 19/113/18
f 126/100/125 90/99/89 127/116/126
f 94/109/93 126/100/125 128/118/127
f 90/99/89 20/115/19 127/116/126
f 128/118/127 126/100/125 127/116/126
f 97/105/96 19/113/18 96/114/95
f 94/152/93 99/117/98 93/108/92
f 94/109/93 98/120/97 99/124/98
f 128/118/127 127/116/126 102/119/101
f 97/105/96 96/114/95 23/130/22
f 95/111/94 97/105/96 23/130/22
f 23/130/22 96/114/95 22/121/21
f 21/96/20 103/10/102 20/115/19
f 95/111/94 23/130/22 101/112/100
f 127/116/126 104/9/103 102/119/101
f 23/130/22 22/121/21 31/8/30
f 20/115/19 103/10/102 104/9/103
f 98/120/97 100/122/99 130/123/129
f 16/95/15 129/44/128 113/136/112
f 129/44/128 24/153/23 113/136/112
f 107/79/106 108/131/107 106/127/105
f 129/44/128 103/10/102 24/153/23
f 103/10/102 16/95/15 112/132/111
f 112/132/111 16/95/15 110/135/109
f 22/121/21 130/126/129 5/18/4
f 100/122/99 102/119/101 29/125/28
f 23/130/22 31/8/30 34/17/33
f 101/112/100 34/17/33 108/131/107
f 108/131/107 34/17/33 8/16/7
f 107/79/106 101/112/100 108/131/107
f 107/79/106 106/127/105 54/52/53
f 108/131/107 115/128/114 106/127/105
f 54/52/53 60/50/59 75/62/74
f 108/131/107 54/52/53 115/128/114
f 114/134/113 109/133/108 111/138/110
f 112/132/111 116/137/115 109/133/108
f 113/136/112 24/153/23 111/138/110
f 24/153/23 114/134/113 111/138/110
f 114/134/113 103/10/102 112/132/111
f 110/135/109 16/95/15 113/136/112
f 103/10/102 114/134/113 24/153/23
usemtl Stub
f 28/1/27 2/2/1 27/3/26
f 26/4/25 3/5/2 28/1/27
f 25/139/24 26/4/25 28/1/27
f 28/1/27 27/3/26 25/139/24
f 25/139/24 27/3/26 4/140/3
f 25/139/24 4/140/3 26/4/25
f 28/1/27 3/5/2 2/2/1
l 2 1
